<?xml version="1.0" encoding="UTF-8"?>
<svg width="40px" height="40px" viewBox="0 0 40 40" version="1.1" xmlns="http://www.w3.org/2000/svg" xmlns:xlink="http://www.w3.org/1999/xlink">
    <!-- Generator: Sketch 52.6 (67491) - http://www.bohemiancoding.com/sketch -->
    <title>Group 6svg</title>
    <desc>Created with Sketch.</desc>
    <g id="UI" stroke="none" stroke-width="1" fill="none" fill-rule="evenodd">
        <g id="Google-Ads-LP" transform="translate(-383.000000, -550.000000)">
            <g id="Group" transform="translate(372.000000, 540.000000)">
                <g id="Group-2">
                    <g id="Group-6" transform="translate(11.000000, 10.000000)">
                        <circle id="Oval" fill="#26AF6F" cx="20" cy="20" r="20"></circle>
                        <path d="M23.7719975,16.0351959 L29.0437507,24.4700011 C29.336461,24.9383376 29.1940878,25.555288 28.7257513,25.8479983 C28.5668197,25.9473306 28.3831721,26 28.1957524,26 L16.8042476,26 C16.2519629,26 15.8042476,25.5522847 15.8042476,25 C15.8042476,24.8125803 15.8569171,24.6289327 15.9562493,24.4700011 L21.2280025,16.0351959 C21.667068,15.3326911 22.5924936,15.1191314 23.2949984,15.5581969 C23.4881521,15.6789179 23.6512764,15.8420422 23.7719975,16.0351959 Z" id="Triangle" fill="#FFFFFF" transform="translate(22.500000, 20.000000) rotate(-270.000000) translate(-22.500000, -20.000000) "></path>
                    </g>
                </g>
            </g>
        </g>
    </g>
</svg>