<?xml version="1.0" encoding="UTF-8"?>
<svg width="560px" height="529px" viewBox="0 0 560 529" version="1.1" xmlns="http://www.w3.org/2000/svg" xmlns:xlink="http://www.w3.org/1999/xlink">
    <!-- Generator: Sketch 52.6 (67491) - http://www.bohemiancoding.com/sketch -->
    <title>Group 19</title>
    <desc>Created with Sketch.</desc>
    <defs>
        <path d="M342.39998,5.59999967 L518.193361,5.59999967 L518.193361,98.4629908 C518.193361,101.113957 516.044327,103.262991 513.393361,103.262991 L347.199979,103.262991 C344.549013,103.262991 342.39998,101.113957 342.39998,98.4629908 L342.39998,5.59999967 Z" id="path-1"></path>
        <filter x="-21.9%" y="-25.1%" width="143.8%" height="178.8%" filterUnits="objectBoundingBox" id="filter-2">
            <feMorphology radius="3" operator="erode" in="SourceAlpha" result="shadowSpreadOuter1"></feMorphology>
            <feOffset dx="0" dy="14" in="shadowSpreadOuter1" result="shadowOffsetOuter1"></feOffset>
            <feGaussianBlur stdDeviation="13.5" in="shadowOffsetOuter1" result="shadowBlurOuter1"></feGaussianBlur>
            <feColorMatrix values="0 0 0 0 0   0 0 0 0 0   0 0 0 0 0  0 0 0 0.05 0" type="matrix" in="shadowBlurOuter1"></feColorMatrix>
        </filter>
        <path d="M7.2475359e-13,104.054171 L175.793381,104.054171 L175.793381,196.917162 C175.793381,199.568129 173.644348,201.717162 170.993381,201.717162 L4.79999971,201.717162 C2.14903307,201.717162 7.2507824e-13,199.568129 7.2475359e-13,196.917162 L7.2475359e-13,104.054171 Z" id="path-3"></path>
        <filter x="-21.9%" y="-25.1%" width="143.8%" height="178.8%" filterUnits="objectBoundingBox" id="filter-4">
            <feMorphology radius="3" operator="erode" in="SourceAlpha" result="shadowSpreadOuter1"></feMorphology>
            <feOffset dx="0" dy="14" in="shadowSpreadOuter1" result="shadowOffsetOuter1"></feOffset>
            <feGaussianBlur stdDeviation="13.5" in="shadowOffsetOuter1" result="shadowBlurOuter1"></feGaussianBlur>
            <feColorMatrix values="0 0 0 0 0   0 0 0 0 0   0 0 0 0 0  0 0 0 0.05 0" type="matrix" in="shadowBlurOuter1"></feColorMatrix>
        </filter>
    </defs>
    <g id="UI" stroke="none" stroke-width="1" fill="none" fill-rule="evenodd">
        <g id="Google-Ads-LP" transform="translate(-757.000000, -217.000000)">
            <g id="Group-19" transform="translate(778.000000, 218.000000)">
                <g id="undraw_online_organizer_ofxm">
                    <path d="M124.955052,505.56596 L108,458.091805 C108,458.091805 126.650559,467.417085 127.498316,479.285622 C127.498316,479.285622 123.259551,419.942904 114.782022,407.226636 C114.782022,407.226636 128.346066,408.922143 143.605618,475.046857 C143.605618,475.046857 146.148875,398.749107 123.259551,376.707533 C123.259551,376.707533 154.626404,402.140121 157.169662,457.244048 L157.169662,505.565966 L124.955052,505.56596 Z" id="Path" fill="#20BC7F" fill-rule="nonzero"></path>
                    <path d="M150.503303,172.054167 L326.296684,172.054167 L326.296684,264.917158 C326.296684,267.568125 324.147651,269.717158 321.496685,269.717158 L155.303303,269.717158 C152.652336,269.717158 150.503303,267.568125 150.503303,264.917158 L150.503303,172.054167 Z" id="Rectangle" fill="#2CC58A" fill-rule="nonzero" opacity="0.699999988"></path>
                    <g id="Rectangle">
                        <use fill="black" fill-opacity="1" filter="url(#filter-2)" xlink:href="#path-1"></use>
                        <use fill="#FFFFFF" fill-rule="evenodd" xlink:href="#path-1"></use>
                    </g>
                    <path d="M155.560308,166.399991 L321.753689,166.399991 C324.404656,166.399991 326.553689,168.549024 326.553689,171.199991 L326.553689,175.138256 L150.760308,175.138256 L150.760308,171.199991 C150.760308,168.549024 152.909341,166.399991 155.560308,166.399991 Z" id="Rectangle" fill="#0B9660" fill-rule="nonzero"></path>
                    <path d="M347.45699,0 L513.136356,0 C515.787323,1.59947449e-14 517.936356,2.14903307 517.936356,4.79999971 L517.936356,8.73826521 L342.656991,8.73826521 L342.656991,4.79999971 C342.656991,2.14903307 344.806024,4.86974672e-16 347.45699,0 Z" id="Rectangle" fill="#3F3D56" fill-rule="nonzero"></path>
                    <rect id="Rectangle" fill="#EEEEEE" fill-rule="nonzero" opacity="0.699999988" x="225.035582" y="188.759677" width="87.8966873" height="2.57007989"></rect>
                    <rect id="Rectangle" fill="#EEEEEE" fill-rule="nonzero" opacity="0.699999988" x="225.035582" y="199.03999" width="87.8966873" height="2.57007989"></rect>
                    <rect id="Rectangle" fill="#EEEEEE" fill-rule="nonzero" opacity="0.699999988" x="225.035582" y="209.320303" width="87.8966873" height="2.57007989"></rect>
                    <rect id="Rectangle" fill="#FFFFFF" fill-rule="nonzero" x="355.764389" y="22.3596854" width="31.8689778" height="22.6166902"></rect>
                    <rect id="Rectangle" fill="#E6E6E6" fill-rule="nonzero" x="416.932264" y="22.3596854" width="87.8966873" height="2.57007989"></rect>
                    <rect id="Rectangle" fill="#E6E6E6" fill-rule="nonzero" x="416.932264" y="32.6399985" width="87.8966873" height="2.57007989"></rect>
                    <rect id="Rectangle" fill="#E6E6E6" fill-rule="nonzero" x="416.932264" y="42.9203117" width="87.8966873" height="2.57007989"></rect>
                    <circle id="Oval" fill="#FE0303" fill-rule="nonzero" cx="371.698877" cy="33.9250353" r="10.2803131"></circle>
                    <path d="M367.199978,28.924272 L376.968665,38.6929585" id="Path-10" stroke="#FFFFFF" stroke-width="1.19999993"></path>
                    <path d="M367.199978,28.924272 L376.968665,38.6929585" id="Path-10" stroke="#FFFFFF" stroke-width="1.19999993" transform="translate(372.084321, 33.808615) scale(-1, 1) translate(-372.084321, -33.808615) "></path>
                    <path d="M90.1250519,344.16502 L89.0970263,344.16502 L89.0970263,337.996834 L90.1250519,337.996834 L90.1250519,344.16502 Z M90.1250519,331.828643 L89.0970263,331.828643 L89.0970263,325.660457 L90.1250519,325.660457 L90.1250519,331.828643 Z M90.1250519,319.492266 L89.0970263,319.492266 L89.0970263,313.32408 L90.1250519,313.32408 L90.1250519,319.492266 Z M90.1250519,307.155889 L89.0970263,307.155889 L89.0970263,300.987703 L90.1250519,300.987703 L90.1250519,307.155889 Z M90.1250519,294.819512 L89.0970263,294.819512 L89.0970263,288.651326 L90.1250519,288.651326 L90.1250519,294.819512 Z M90.1250519,282.483134 L89.0970263,282.483134 L89.0970263,276.314949 L90.1250519,276.314949 L90.1250519,282.483134 Z M90.1250519,270.146757 L89.0970263,270.146757 L89.0970263,263.978572 L90.1250519,263.978572 L90.1250519,270.146757 Z M90.1250519,257.81038 L89.0970263,257.81038 L89.0970263,251.642189 L90.1250519,251.642189 L90.1250519,257.81038 Z M90.1250519,245.474003 L89.0970263,245.474003 L89.0970263,239.305812 L90.1250519,239.305812 L90.1250519,245.474003 Z M90.1250519,233.137626 L89.0970263,233.137626 L89.0970263,226.969435 L90.1250519,226.969435 L90.1250519,233.137626 Z" id="Shape" fill="#3F3D56" fill-rule="nonzero"></path>
                    <path d="M90.1250519,220.395579 L89.0970263,220.395579 L89.0970263,214.227394 L90.1250519,214.227394 L90.1250519,220.395579 Z M90.1250519,208.059202 L89.0970263,208.059202 L89.0970263,201.891017 L90.1250519,201.891017 L90.1250519,208.059202 Z M90.1250519,195.722825 L89.0970263,195.722825 L89.0970263,189.55464 L90.1250519,189.55464 L90.1250519,195.722825 Z M90.1250519,183.386448 L89.0970263,183.386448 L89.0970263,177.218263 L90.1250519,177.218263 L90.1250519,183.386448 Z M90.1250519,171.050071 L89.0970263,171.050071 L89.0970263,164.881885 L90.1250519,164.881885 L90.1250519,171.050071 Z M90.1250519,158.713694 L89.0970263,158.713694 L89.0970263,152.545508 L90.1250519,152.545508 L90.1250519,158.713694 Z M90.1250519,146.377317 L89.0970263,146.377317 L89.0970263,140.209131 L90.1250519,140.209131 L90.1250519,146.377317 Z M90.1250519,134.04094 L89.0970263,134.04094 L89.0970263,127.872748 L90.1250519,127.872748 L90.1250519,134.04094 Z M90.1250519,121.704563 L89.0970263,121.704563 L89.0970263,115.536371 L90.1250519,115.536371 L90.1250519,121.704563 Z M90.1250519,109.368186 L89.0970263,109.368186 L89.0970263,103.199994 L90.1250519,103.199994 L90.1250519,109.368186 Z" id="Shape" fill="#3F3D56" fill-rule="nonzero"></path>
                    <polygon id="Path" fill="#3F3D56" fill-rule="nonzero" points="88.7999947 353.931502 88.7999947 350.333423 89.8278347 350.333423 89.8278347 352.903023 95.5980744 352.903023 95.5980744 353.931502"></polygon>
                    <path d="M422.037698,353.931323 L415.840898,353.931323 L415.840898,352.903291 L422.037698,352.903291 L422.037698,353.931323 Z M409.644598,353.931323 L403.448304,353.931323 L403.448304,352.903291 L409.644598,352.903291 L409.644598,353.931323 Z M397.252003,353.931323 L391.055203,353.931323 L391.055203,352.903291 L397.252003,352.903291 L397.252003,353.931323 Z M384.858903,353.931323 L378.662602,353.931323 L378.662602,352.903291 L384.858903,352.903291 L384.858903,353.931323 Z M372.466302,353.931323 L366.269502,353.931323 L366.269502,352.903291 L372.466302,352.903291 L372.466302,353.931323 Z M360.073202,353.931323 L353.876907,353.931323 L353.876907,352.903291 L360.073202,352.903291 L360.073202,353.931323 Z M347.680607,353.931323 L341.483807,353.931323 L341.483807,352.903291 L347.680607,352.903291 L347.680607,353.931323 Z M335.287507,353.931323 L329.091187,353.931323 L329.091187,352.903291 L335.287507,352.903291 L335.287507,353.931323 Z M322.894906,353.931323 L316.698106,353.931323 L316.698106,352.903291 L322.894906,352.903291 L322.894906,353.931323 Z M310.501812,353.931323 L304.305511,353.931323 L304.305511,352.903291 L310.501812,352.903291 L310.501812,353.931323 Z M314.10921,353.931323 L307.91241,353.931323 L307.91241,352.903291 L314.10921,352.903291 L314.10921,353.931323 Z M306.516109,353.931323 L300.319809,353.931323 L300.319809,352.903291 L306.516109,352.903291 L306.516109,353.931323 Z M294.123515,353.931323 L287.926708,353.931323 L287.926708,352.903291 L294.123515,352.903291 L294.123515,353.931323 Z M281.730414,353.931323 L275.534114,353.931323 L275.534114,352.903291 L281.730414,352.903291 L281.730414,353.931323 Z M269.337813,353.931323 L263.141014,353.931323 L263.141014,352.903291 L269.337813,352.903291 L269.337813,353.931323 Z M256.944713,353.931323 L250.748413,353.931323 L250.748413,352.903291 L256.944713,352.903291 L256.944713,353.931323 Z M244.552118,353.931323 L238.355568,353.931323 L238.355568,352.903291 L244.552118,352.903291 L244.552118,353.931323 Z M232.159268,353.931323 L225.962718,353.931323 L225.962718,352.903291 L232.159268,352.903291 L232.159268,353.931323 Z M219.766417,353.931323 L213.569867,353.931323 L213.569867,352.903291 L219.766417,352.903291 L219.766417,353.931323 Z M207.373573,353.931323 L201.177023,353.931323 L201.177023,352.903291 L207.373573,352.903291 L207.373573,353.931323 Z M194.980722,353.931323 L188.784172,353.931323 L188.784172,352.903291 L194.980722,352.903291 L194.980722,353.931323 Z M182.587872,353.931323 L176.391321,353.931323 L176.391321,352.903291 L182.587872,352.903291 L182.587872,353.931323 Z M170.195021,353.931323 L163.998471,353.931323 L163.998471,352.903291 L170.195021,352.903291 L170.195021,353.931323 Z M157.802177,353.931323 L151.605627,353.931323 L151.605627,352.903291 L157.802177,352.903291 L157.802177,353.931323 Z M145.409345,353.931323 L139.212795,353.931323 L139.212795,352.903291 L145.409345,352.903291 L145.409345,353.931323 Z M133.016475,353.931323 L126.819925,353.931323 L126.819925,352.903291 L133.016475,352.903291 L133.016475,353.931323 Z M120.623625,353.931323 L114.427081,353.931323 L114.427081,352.903291 L120.623625,352.903291 L120.623625,353.931323 Z M108.23078,353.931323 L102.03423,353.931323 L102.03423,352.903291 L108.23078,352.903291 L108.23078,353.931323 Z" id="Shape" fill="#3F3D56" fill-rule="nonzero"></path>
                    <polygon id="Path" fill="#3F3D56" fill-rule="nonzero" points="427.199975 353.931502 427.199975 352.903023 429.769574 352.903023 429.769574 350.333423 430.798054 350.333423 430.798054 353.931502"></polygon>
                    <path d="M430.628006,344.395572 L429.599974,344.395572 L429.599974,338.227386 L430.628006,338.227386 L430.628006,344.395572 Z M430.628006,332.059195 L429.599974,332.059195 L429.599974,325.891009 L430.628006,325.891009 L430.628006,332.059195 Z M430.628006,319.722818 L429.599974,319.722818 L429.599974,313.554632 L430.628006,313.554632 L430.628006,319.722818 Z M430.628006,307.38644 L429.599974,307.38644 L429.599974,301.218255 L430.628006,301.218255 L430.628006,307.38644 Z M430.628006,295.050063 L429.599974,295.050063 L429.599974,288.881878 L430.628006,288.881878 L430.628006,295.050063 Z M430.628006,282.713686 L429.599974,282.713686 L429.599974,276.545501 L430.628006,276.545501 L430.628006,282.713686 Z M430.628006,270.377309 L429.599974,270.377309 L429.599974,264.209124 L430.628006,264.209124 L430.628006,270.377309 Z M430.628006,258.040932 L429.599974,258.040932 L429.599974,251.872741 L430.628006,251.872741 L430.628006,258.040932 Z M430.628006,245.704555 L429.599974,245.704555 L429.599974,239.536364 L430.628006,239.536364 L430.628006,245.704555 Z M430.628006,233.368178 L429.599974,233.368178 L429.599974,227.199986 L430.628006,227.199986 L430.628006,233.368178 Z" id="Shape" fill="#3F3D56" fill-rule="nonzero"></path>
                    <path d="M430.628006,220.395579 L429.599974,220.395579 L429.599974,214.227394 L430.628006,214.227394 L430.628006,220.395579 Z M430.628006,208.059202 L429.599974,208.059202 L429.599974,201.891017 L430.628006,201.891017 L430.628006,208.059202 Z M430.628006,195.722825 L429.599974,195.722825 L429.599974,189.55464 L430.628006,189.55464 L430.628006,195.722825 Z M430.628006,183.386448 L429.599974,183.386448 L429.599974,177.218263 L430.628006,177.218263 L430.628006,183.386448 Z M430.628006,171.050071 L429.599974,171.050071 L429.599974,164.881885 L430.628006,164.881885 L430.628006,171.050071 Z M430.628006,158.713694 L429.599974,158.713694 L429.599974,152.545508 L430.628006,152.545508 L430.628006,158.713694 Z M430.628006,146.377317 L429.599974,146.377317 L429.599974,140.209131 L430.628006,140.209131 L430.628006,146.377317 Z M430.628006,134.04094 L429.599974,134.04094 L429.599974,127.872748 L430.628006,127.872748 L430.628006,134.04094 Z M430.628006,121.704563 L429.599974,121.704563 L429.599974,115.536371 L430.628006,115.536371 L430.628006,121.704563 Z M430.628006,109.368186 L429.599974,109.368186 L429.599974,103.199994 L430.628006,103.199994 L430.628006,109.368186 Z" id="Shape" fill="#3F3D56" fill-rule="nonzero"></path>
                    <path d="M158.503303,322.576361 L318.296685,322.576361 C322.714963,322.576361 326.296684,326.158083 326.296684,330.576361 L326.296684,505.56596 L150.503303,505.56596 L150.503303,330.576361 C150.503303,326.158083 154.085025,322.576361 158.503303,322.576361 Z" id="Rectangle" fill="#3F3D56" fill-rule="nonzero"></path>
                    <rect id="Rectangle" fill="#FFFFFF" fill-rule="nonzero" x="163.867712" y="346.478095" width="31.8689778" height="22.6166902" rx="2.50834545"></rect>
                    <path d="M166.39999,343.999979 L193.599988,371.199978" id="Path-10" stroke="#E21414" stroke-width="3.19999981"></path>
                    <path d="M166.39999,343.999979 L193.599988,371.199978" id="Path-10" stroke="#E21414" stroke-width="3.19999981" transform="translate(179.999989, 357.599979) scale(-1, 1) translate(-179.999989, -357.599979) "></path>
                    <rect id="Rectangle" fill="#FFFFFF" fill-rule="nonzero" x="225.035582" y="346.478095" width="87.8966873" height="2.57007989"></rect>
                    <rect id="Rectangle" fill="#FFFFFF" fill-rule="nonzero" x="225.035582" y="356.758408" width="87.8966873" height="2.57007989"></rect>
                    <rect id="Rectangle" fill="#FFFFFF" fill-rule="nonzero" x="225.035582" y="367.038721" width="87.8966873" height="2.57007989"></rect>
                    <rect id="Rectangle" fill="#FFFFFF" fill-rule="nonzero" x="163.867712" y="427.949586" width="31.8689778" height="22.6166902" rx="2.50834545"></rect>
                    <rect id="Rectangle" fill="#FFFFFF" fill-rule="nonzero" x="225.035582" y="427.949586" width="87.8966873" height="2.57007989"></rect>
                    <rect id="Rectangle" fill="#FFFFFF" fill-rule="nonzero" x="225.035582" y="438.229899" width="87.8966873" height="2.57007989"></rect>
                    <rect id="Rectangle" fill="#FFFFFF" fill-rule="nonzero" x="225.035582" y="448.510212" width="87.8966873" height="2.57007989"></rect>
                    <polygon id="Path" fill="#26AF6F" fill-rule="nonzero" transform="translate(184.712313, 432.717419) rotate(-10.000000) translate(-184.712313, -432.717419) " points="177.537273 444.207338 166.628474 429.662699 169.212794 427.724779 178.099193 439.573099 200.750712 421.227499 202.796152 423.727979"></polygon>
                    <polygon id="Rectangle" fill="#3F3D56" fill-rule="nonzero" points="55.561234 505.051944 449.033997 505.051944 449.033997 506.079976 55.561234 506.079976"></polygon>
                    <g id="Rectangle">
                        <use fill="black" fill-opacity="1" filter="url(#filter-4)" xlink:href="#path-3"></use>
                        <use fill="#FFFFFF" fill-rule="evenodd" xlink:href="#path-3"></use>
                    </g>
                    <path d="M5.0570045,98.3999953 L170.73637,98.3999953 C173.387337,98.3999953 175.53637,100.549028 175.53637,103.199995 L175.53637,107.138261 L0.257004789,107.138261 L0.257004789,103.199995 C0.257004789,100.549028 2.40603786,98.3999953 5.0570045,98.3999953 Z" id="Rectangle" fill="#3F3D56" fill-rule="nonzero"></path>
                    <rect id="Rectangle" fill="#FFFFFF" fill-rule="nonzero" x="13.364409" y="120.759681" width="31.8689778" height="22.6166902"></rect>
                    <rect id="Rectangle" fill="#E6E6E6" fill-rule="nonzero" x="74.5322783" y="120.759681" width="87.8966873" height="2.57007989"></rect>
                    <rect id="Rectangle" fill="#E6E6E6" fill-rule="nonzero" x="74.5322783" y="131.039994" width="87.8966873" height="2.57007989"></rect>
                    <rect id="Rectangle" fill="#E6E6E6" fill-rule="nonzero" x="74.5322783" y="141.320307" width="87.8966873" height="2.57007989"></rect>
                    <circle id="Oval" fill="#04AB6A" fill-rule="nonzero" cx="29.2988979" cy="132.325031" r="10.2803131"></circle>
                    <polygon id="Path" fill="#FFFFFF" fill-rule="nonzero" transform="translate(29.599998, 132.799993) rotate(-10.000000) translate(-29.599998, -132.799993) " points="27.0607005 136.799993 23.1999986 131.736409 24.1146078 131.06174 27.259568 135.186847 35.2761021 128.799994 35.9999979 129.67029"></polygon>
                </g>
                <g id="Group-28" transform="translate(278.000000, 237.000000)" fill-rule="nonzero">
                    <path d="M67.0247173,39.6119904 C66.6881573,42.6105326 64.4010503,45.0259692 63.5536248,47.9218914 C62.2781241,52.280651 64.4836559,56.9579891 67.5006221,60.3526304 C72.4175655,65.8269897 79.3214694,69.1050515 86.671459,69.4551889 C87.7404451,69.5491608 88.8174744,69.4317783 89.8411203,69.1097361 C90.7550692,68.7419737 91.5779722,68.1796002 92.252637,67.4617011 C94.5246968,65.180334 95.7443375,62.0193303 96.230395,58.8364585 C96.7164526,55.6535868 96.527559,52.410935 96.337495,49.1967817 C96.3384268,48.5323705 96.2177171,47.8734019 95.9813351,47.2524618 C95.6715045,46.6609553 95.245924,46.1377708 94.7298864,45.7140019 C93.0941055,44.2134227 91.2923236,42.9045404 89.359554,41.8127902 C88.4859357,41.4213184 87.7154898,40.8317721 87.1092613,40.0908632 C86.7440028,39.4561461 86.5076155,38.7555763 86.4136518,38.0293185 L85.8203598,35.005946 C85.7145255,34.1346824 85.4169678,33.2976897 84.9490783,32.5551397 C83.9009824,31.1412742 81.8961265,30.9488639 80.1375027,30.8798775 L73.6946192,30.6271383 C71.6905137,30.5485199 69.0498563,29.9738199 67.0934069,30.3674047 C65.2664686,30.7349383 65.8733238,32.4184717 66.2051853,33.9514044 C66.6864308,35.8022391 66.9612824,37.7006657 67.0247173,39.6119904 Z" id="Path" fill="#975B56"></path>
                    <path d="M67.0247173,39.6119904 C66.6881573,42.6105326 64.4010503,45.0259692 63.5536248,47.9218914 C62.2781241,52.280651 64.4836559,56.9579891 67.5006221,60.3526304 C72.4175655,65.8269897 79.3214694,69.1050515 86.671459,69.4551889 C87.7404451,69.5491608 88.8174744,69.4317783 89.8411203,69.1097361 C90.7550692,68.7419737 91.5779722,68.1796002 92.252637,67.4617011 C94.5246968,65.180334 95.7443375,62.0193303 96.230395,58.8364585 C96.7164526,55.6535868 96.527559,52.410935 96.337495,49.1967817 C96.3384268,48.5323705 96.2177171,47.8734019 95.9813351,47.2524618 C95.6715045,46.6609553 95.245924,46.1377708 94.7298864,45.7140019 C93.0941055,44.2134227 91.2923236,42.9045404 89.359554,41.8127902 C88.4859357,41.4213184 87.7154898,40.8317721 87.1092613,40.0908632 C86.7440028,39.4561461 86.5076155,38.7555763 86.4136518,38.0293185 L85.8203598,35.005946 C85.7145255,34.1346824 85.4169678,33.2976897 84.9490783,32.5551397 C83.9009824,31.1412742 81.8961265,30.9488639 80.1375027,30.8798775 L73.6946192,30.6271383 C71.6905137,30.5485199 69.0498563,29.9738199 67.0934069,30.3674047 C65.2664686,30.7349383 65.8733238,32.4184717 66.2051853,33.9514044 C66.6864308,35.8022391 66.9612824,37.7006657 67.0247173,39.6119904 Z" id="Path" fill="#000000" opacity="0.1"></path>
                    <path d="M108.010045,174.578034 C107.097245,184.586469 106.184454,194.593356 105.271673,204.598696 C104.557113,212.472676 103.828721,220.378935 102.427276,228.151471 C101.943201,230.829906 101.376156,233.494532 100.703092,236.136085 C98.8314156,243.470668 96.1161327,250.639294 95.2401919,258.158313 C95.2125335,258.374971 95.1894895,258.596233 95.1664455,258.81755 C95.068375,260.480204 94.7537673,262.122954 94.2305904,263.704194 C93.7926312,264.852093 93.1195505,265.898582 92.6447321,267.032666 C91.6996762,269.300806 91.5751938,271.808676 91.4599458,274.26581 C88.1355521,272.396272 84.4963791,271.152489 80.7231394,270.596225 C78.9021652,270.324222 76.8737613,270.130608 75.6336526,268.770626 C74.2598383,267.267743 74.4119791,264.96733 74.6424527,262.948127 C75.3662377,256.678468 76.0884809,250.411882 76.8091821,244.148368 C77.0443851,241.453599 77.5023407,238.782935 78.178354,236.163755 C78.4273188,235.292445 78.7269524,234.434984 79.031234,233.577524 C79.4507355,232.397352 79.8748515,231.217174 80.1929483,230.004724 C80.6513385,228.04572 80.9717578,226.056977 81.1518474,224.053134 C81.8940545,217.746582 82.7884081,211.453852 83.5721224,205.151915 L83.613624,204.820003 C84.7891815,195.26796 85.6835351,185.66983 85.4253751,176.04865 C85.3884823,174.624161 85.3285511,173.199639 85.2363471,171.770535 C85.1072783,169.700624 84.9182671,168.603433 86.6332054,167.308008 C88.5279316,165.878888 91.021925,164.878498 93.1886881,163.942649 C94.3550448,163.435552 107.198644,158.876206 107.498305,159.876607 C108.100817,162.010454 108.417066,164.214911 108.438747,166.432084 C108.447907,169.153271 108.304782,171.87284 108.010045,174.578034 Z" id="Path" fill="#2F2E41"></path>
                    <path d="M102.427276,228.151471 C101.943201,230.829906 101.376156,233.494532 100.703092,236.136085 C98.8314156,243.470668 96.1161327,250.639294 95.2401919,258.158313 C95.2125335,258.374971 95.1894895,258.596233 95.1664455,258.81755 C89.4407372,250.639311 84.6186391,241.84333 79.031262,233.577512 C79.4507635,232.39734 79.8748795,231.217163 80.1929763,230.004713 C80.6513665,228.045709 80.9717858,226.056965 81.1518754,224.053123 C81.8940825,217.746571 82.7884361,211.45384 83.5721504,205.151903 L83.613652,204.819991 C83.9415846,206.157876 84.4097874,207.45742 85.0104823,208.697033 C88.7630756,216.322082 97.6789021,220.176081 102.040019,227.47377 C102.173703,227.699689 102.302788,227.92559 102.427276,228.151471 Z" id="Path" fill="#000000" opacity="0.1"></path>
                    <path d="M55.9669413,161.102928 C56.1560533,167.218587 57.135034,173.279063 58.1119876,179.319167 L60.1276794,191.781232 C61.2308793,198.601757 62.3794392,205.56128 65.6071222,211.670191 C68.0216124,216.239958 71.5002929,220.13949 74.6472967,224.239356 C82.3839089,234.318487 88.1959861,245.736024 95.5319911,256.110371 C97.6643085,259.12583 100.712226,262.386923 104.351363,261.757281 C106.739763,261.344035 108.474492,259.355514 110.351908,257.822341 C112.565319,256.014779 115.232997,254.692137 116.974541,252.426416 C118.716085,250.160696 119.057304,246.394595 116.69785,244.782316 C115.844107,244.309389 114.937706,243.938511 113.997323,243.677324 C110.339684,242.286284 107.972245,238.71447 106.465884,235.10279 C104.959523,231.491109 104.046858,227.60761 102.039588,224.248411 C97.6789189,216.95075 88.7618156,213.09692 85.0083095,205.469171 C82.9060249,201.196976 82.7056625,196.272897 82.5449705,191.514174 L82.1353305,179.383404 C82.0905305,178.056837 82.0554857,176.677165 82.5947489,175.464323 C84.0305048,172.235223 88.3655205,171.934459 91.8756282,171.525087 C95.8594907,171.058185 99.7187906,169.840565 103.249278,167.936669 C105.271006,166.844933 107.246165,165.453182 108.327733,163.425999 C109.314486,161.57652 109.450661,159.40726 109.566374,157.314209 L110.781748,135.329837 C110.886311,133.438432 110.981668,131.482772 110.315044,129.709678 C108.641164,125.257409 103.019062,123.802535 98.2672773,124.01496 C89.424878,124.410253 81.2619658,128.213968 72.924692,130.782655 C70.8596385,131.434023 68.7630615,131.980876 66.6429429,132.42113 C64.7718039,132.796627 62.5072704,132.640824 60.7226906,133.24246 C57.549014,134.312413 57.629598,141.252912 57.1795708,144.131922 C56.2501105,149.739098 55.8441525,155.420566 55.9669413,161.102928 Z" id="Path" fill="#2F2E41"></path>
                    <path d="M103.150735,262.679025 C103.930462,263.465371 104.185334,264.61738 104.388446,265.705987 C105.514733,271.744436 106.10057,277.871255 106.139006,284.013724 C106.086897,284.586838 106.20131,285.162813 106.46851,285.6725 C106.688091,285.976493 106.985628,286.215605 107.329751,286.364626 C109.583325,287.438706 112.19904,285.941826 114.076894,284.29686 C117.55801,281.247425 120.50361,277.154357 120.701335,272.530701 C120.665095,271.339782 120.706811,270.147768 120.826215,268.962297 C121.131975,267.221604 122.148447,265.704945 123.044089,264.181364 C124.568309,261.587816 125.797707,258.831944 126.709362,255.965129 C127.051729,254.88807 127.279441,253.531896 126.435471,252.78023 C126.136234,252.545758 125.796047,252.368908 125.43222,252.25868 L115.252216,248.478842 C114.370054,248.151298 112.174927,253.79005 111.826523,254.406498 C110.97427,255.914399 110.126856,256.770426 108.417064,257.118488 C106.671768,257.473775 104.594157,256.963973 102.965655,257.834728 C100.210869,259.307674 101.590955,261.10599 103.150735,262.679025 Z" id="Path" fill="#53535D"></path>
                    <path d="M87.4427805,266.158747 C87.2534416,265.782339 86.9898586,265.44816 86.6679142,265.176344 C86.1966328,264.877437 85.6607855,264.695393 85.1049543,264.645358 C83.1669176,264.316291 80.8698314,264.099616 79.5322099,265.540115 C78.278146,266.890639 78.4937404,269.090722 77.4452973,270.606434 C77.1133909,271.086265 76.6636829,271.481714 76.3759158,271.989242 C76.0187409,272.765068 75.8576395,273.616762 75.9067758,274.469443 C75.852663,276.818783 75.7986342,279.17211 75.9609222,281.516482 C76.0969182,283.480962 76.4280574,285.539522 77.6565349,287.078553 C79.6283227,289.548769 83.1845856,289.903971 86.341199,290.064299 L88.8977388,290.194146 C89.6018332,290.279722 90.3160809,290.214241 90.9928779,290.002066 C91.8392857,289.610826 92.4912112,288.89354 92.8000481,288.013714 C94.1308152,284.706085 92.0233282,281.142475 90.7251587,277.821916 C89.2330668,274.00522 89.5009932,269.76728 87.4427805,266.158747 Z" id="Path" fill="#53535D"></path>
                    <path d="M66.2840221,22.7164557 C66.2527012,22.3811408 66.3019801,22.0431963 66.4277517,21.7307886 C66.8022013,21.0686894 67.7799612,21.2488862 68.5175316,21.4348398 C71.4837169,22.1826581 74.6091271,21.5057358 77.6631317,21.680439 C80.7171362,21.8551422 84.1572552,23.3819092 84.7713119,26.378637 C86.9880311,24.8071285 88.8988959,22.8437447 90.4097387,20.5852415 C91.2573266,19.3168416 91.9961178,17.8639833 91.8807298,16.3428162 C91.7143034,14.1487363 89.8734491,12.5078805 88.1689437,11.1164038 L83.0879297,6.9684841 C82.4211155,6.35560291 81.6508532,5.86588759 80.8129522,5.52210501 C79.6396347,5.12114504 78.3601188,5.31218343 77.1201837,5.31297863 C73.4215464,5.31534743 69.4780827,3.63209955 66.1885926,5.32301943 C64.8144983,6.02935297 63.7802511,7.23976488 62.7832328,8.41999839 L58.2483532,13.788102 C57.9069901,14.1302204 57.6576356,14.5530689 57.5234556,15.0173635 C57.3944316,15.6726138 57.7309356,16.3192794 57.848362,16.9767025 C58.0625676,18.1759368 57.5460516,19.4558223 57.9431532,20.6074903 C58.6024019,22.5194029 60.9237978,22.7900453 62.3429944,23.886122 C62.8719368,24.2946364 63.7009215,25.6790963 64.3311343,25.6621899 C65.4682198,25.6316867 66.2544597,23.5998892 66.2840221,22.7164557 Z" id="Path" fill="#2B2943"></path>
                    <circle id="Oval" fill="#975B56" cx="73.9786288" cy="24.018338" r="14.5216669"></circle>
                    <path d="M77.3798613,55.7992708 C76.3687753,52.903176 73.5976317,50.9961652 70.5314426,51.0864119 C70.1040092,51.165975 69.6624006,51.1101374 69.2682227,50.9266887 C69.0453017,50.7554093 68.8671694,50.5326983 68.7490524,50.2775928 C67.8660463,48.6897111 67.1561865,47.0115603 66.6316925,45.2720276 C66.4000261,44.503394 66.083223,43.5972357 65.3057078,43.3973997 C64.649718,43.311552 63.999817,43.5942543 63.6153815,44.1326797 C63.2461086,44.6645461 62.8425373,45.1717601 62.4072376,45.6510915 C60.5808538,47.2841186 57.343326,45.7957059 55.4048246,47.2939298 C55.0881838,47.5386498 54.8268654,47.8521434 54.4942982,48.0747489 C54.1614362,48.2751187 53.8026854,48.4289274 53.4280583,48.5318825 C49.6846963,49.7539523 46.0150418,51.1912073 42.4374264,52.8364678 C43.7268655,60.6018808 45.0481462,68.5026794 48.0706283,75.7710364 C49.5089826,79.2299658 51.1389969,82.6175959 52.290788,86.1821916 C54.842831,94.0802406 54.9559734,102.530774 54.9846174,110.830847 C55.0042174,116.511521 54.9759822,122.313473 53.1380848,127.688655 C52.6436635,128.876541 52.2951596,130.120016 52.1002088,131.391834 C51.9892112,132.672694 52.362048,134.084963 53.3998567,134.843825 C54.001562,135.23735 54.6897376,135.479062 55.4053678,135.548232 C58.5899531,136.015513 61.8004553,135.167992 64.936147,134.44179 C73.3407496,132.495386 81.9124337,131.381619 90.4676651,130.270781 L104.80358,128.409341 C105.831171,128.339545 106.836881,128.079621 107.769609,127.642774 C110.392917,126.206458 110.64196,122.260435 109.012876,119.752279 C108.231877,118.549842 107.12996,117.563385 106.473746,116.288551 C105.817533,115.013717 105.76165,113.231018 106.891338,112.34805 C109.189281,110.551967 108.503836,107.219637 108.613433,104.305112 C108.919876,96.1557237 108.878418,88.0031528 108.489057,79.8473993 C108.373963,78.1591276 108.346944,76.4660043 108.408109,74.7749197 C108.662875,71.9093616 109.192332,69.0749041 109.989185,66.3106044 L114.345274,49.1589257 C113.207315,47.3606874 111.02845,46.2197939 108.964402,45.7018051 C106.900354,45.1838164 104.750593,45.0313676 102.717894,44.4014852 C98.5535773,43.1110941 94.8461704,39.8363656 90.4972051,40.1415656 C90.1682395,40.1474755 89.8447061,40.2264761 89.550038,40.3728455 C88.5691868,40.9285055 88.7245196,42.342007 88.661822,43.4675677 C88.52311,45.9578147 86.6915238,48.0390938 84.6688487,49.4983248 C82.6461737,50.9575559 80.3361291,52.0215894 78.4783908,53.6857525 C77.8117029,54.188106 77.4079134,54.9649777 77.3798613,55.7992708 Z" id="Path" fill="#DFDCFF"></path>
                    <path d="M19.8401849,72.0681487 C18.8772005,72.6929809 17.8538957,73.2195163 16.7856763,73.6398278 C15.7396542,73.9509953 14.7513581,74.4306149 13.8596766,75.0598141 C13.4487187,75.4152615 13.1042049,75.8409192 12.842207,76.31693 C11.8409618,78.0923673 11.8853451,80.2720237 12.9580351,82.0052305 C14.0307251,83.7384373 15.9616967,84.7504751 17.997337,84.6463693 C19.3256129,84.4975385 20.6166198,84.1126167 21.80952,83.509743 L32.0519024,79.0713906 C33.7854662,78.3201842 35.6580781,77.4398195 36.4774476,75.737414 C36.572912,75.5786186 36.6082934,75.3908638 36.5771724,75.2082141 C36.4945827,75.0150688 36.3452537,74.8580889 36.1564725,74.7659597 C33.8462303,73.2655967 31.8258421,71.3604664 30.1925177,69.1422329 C29.7722993,68.5716994 29.2581298,67.2245579 28.6641378,66.8824931 C26.4961428,65.6339788 21.5754568,70.9420056 19.8401849,72.0681487 Z" id="Path" fill="#975B56"></path>
                    <path d="M129.335549,68.4261834 L133.111701,72.7398127 C133.922374,73.6658678 134.733914,74.5929981 135.472879,75.577226 C137.287515,78.0780606 138.743258,80.820531 139.797759,83.7248558 C140.618579,85.8787277 141.299847,88.1729747 141.01302,90.4600369 C140.82259,91.6325032 140.505928,92.7809388 140.068558,93.8853158 C139.376458,96.0093239 138.518511,98.0756579 137.502638,100.065235 C136.64819,101.576826 135.68308,103.023132 134.615211,104.392309 C131.691542,108.267253 128.492451,111.926485 125.04279,115.34158 C123.751823,116.619533 123.210426,118.6859 122.64846,120.413331 C121.6119,123.599569 119.145476,126.081197 116.760369,128.434452 C115.993904,129.243822 115.146788,129.972803 114.232204,130.610051 C112.861993,131.492535 111.260725,131.948567 109.631166,131.920401 C108.917809,131.925379 108.211491,131.779167 107.558735,131.491396 C105.926554,130.716328 105.097003,128.828927 104.92697,127.030084 C104.775032,125.397673 105.048596,123.753742 105.721,122.258509 C107.887886,117.458402 113.452359,115.378349 117.385575,111.87602 C119.691946,109.822315 121.455655,107.242648 123.195143,104.690924 C124.376661,103.097731 125.363062,101.36873 126.133262,99.5408786 C127.011655,97.1971108 126.669742,94.422479 127.437154,92.0400264 C127.761529,91.0329729 128.338233,90.1236729 128.687024,89.1248066 C129.035814,88.1259403 129.123628,86.940202 128.51348,86.0758476 C128.053192,85.5265062 127.466527,85.0970058 126.8038,84.8241805 C124.291181,83.5489094 121.47708,81.9077008 120.996192,79.1312938 C120.804509,77.5916169 121.206825,76.0367644 122.121231,74.7832861 C123.032332,73.5465322 124.097035,72.4306827 125.289711,71.4625984 C126.38861,70.490892 128.23661,69.3978953 129.335549,68.4261834 Z" id="Path" fill="#975B56"></path>
                    <path d="M17.4159227,78.0895706 C16.7491475,76.7426644 15.9155484,75.3684861 14.5700869,74.6987709 C13.2518472,74.1264029 11.7564709,74.1201273 10.4334736,74.6814109 C9.12880921,75.2439034 7.90736825,75.9825057 6.8032291,76.8766107 L3.54838055,79.2759306 C2.8104088,79.7600114 2.15748916,80.3626964 1.6159999,81.0596368 C1.10238937,81.9050226 0.76039587,82.8433302 0.609562377,83.8209406 C0.0422507833,86.0504291 -0.130933976,88.3619313 0.0978288159,90.6510641 C0.614355976,94.3215054 2.82726861,97.5258756 5.26298842,100.31985 C6.7849899,102.065722 8.66410336,103.827583 10.9790592,103.902052 C11.9783343,103.934196 13.0896654,103.54032 13.5052694,102.631003 C13.6491862,102.270485 13.7256629,101.8866 13.7308934,101.498454 C13.9809614,97.4044396 12.5164327,93.4055471 10.8086064,89.6763674 C10.2640846,88.6998972 9.94231571,87.6150609 9.86636167,86.4996108 C9.85411638,86.3118936 9.9029298,86.1252522 10.0055105,85.967566 C10.1528096,85.8142537 10.3496906,85.7181258 10.5611704,85.6962629 C12.8986438,85.2339101 16.9248363,87.0497828 18.564617,84.4540038 C19.6276537,82.7712207 18.1713514,79.6155705 17.4159227,78.0895706 Z" id="Path" fill="#975B56"></path>
                    <path d="M65.5224558,18.1470352 C65.4911331,17.8117208 65.5404101,17.4737763 65.6661798,17.1613681 C66.0406294,16.499269 67.0183949,16.6794658 67.7559652,16.8654193 C70.722145,17.6132377 73.8475552,16.9363153 76.9015597,17.1110185 C79.9555643,17.2857217 83.3956832,18.8124888 84.0097456,21.8092166 C86.2264648,20.237708 88.1373296,18.2743243 89.6481724,16.015821 C90.4957547,14.7474211 91.2345458,13.2945628 91.1191578,11.7733957 C90.9527315,9.5793439 89.1118772,7.93846562 87.4073773,6.54698333 L82.3263577,2.39906365 C81.6595451,1.78618182 80.8892824,1.29646809 80.0513803,0.95269016 C78.8780628,0.551730191 77.5985469,0.742762976 76.3586118,0.743558176 C72.6599745,0.745932576 68.7165108,-0.937315295 65.4270262,0.753598975 C64.0529319,1.45993252 63.0186848,2.67034443 62.0216665,3.85058354 L57.4867868,9.21868713 C57.1454246,9.56080394 56.8960701,9.98365046 56.7618893,10.447943 C56.6328653,11.1031934 56.9693693,11.7498589 57.0868012,12.4072877 C57.3010068,13.606522 56.7844853,14.8864075 57.1815868,16.0380698 C57.8408412,17.9499825 60.1622314,18.2206248 61.5814337,19.3167072 C62.1103705,19.7252159 62.9393552,21.1096814 63.569568,21.0927694 C64.7066199,21.0622662 65.4928878,19.0304688 65.5224558,18.1470352 Z" id="Path" fill="#2B2943"></path>
                    <path d="M34.6796126,57.943141 C34.0933158,58.3212785 33.5786908,58.8003516 33.1596215,59.3581265 C32.6272015,60.1631152 32.5189815,61.1793639 32.0616464,62.0292479 C31.0829736,63.8478813 28.7939066,64.4948773 27.3659123,65.986874 C27.1390506,66.1920187 26.9814047,66.4624799 26.9147036,66.7609787 C26.9078176,67.165899 27.0436123,67.5603341 27.2983035,67.8751994 L34.184455,78.7008722 C36.4772124,78.9027466 38.6767747,77.4663019 40.9705065,77.6569819 C41.8269368,77.7281803 42.7033032,78.0239891 43.5245767,77.7709083 C44.1125499,77.5101995 44.6636201,77.1731768 45.1635678,76.7685364 C46.5320061,75.9032748 48.3545819,75.802458 49.5026658,74.6608813 C50.6044769,73.5653086 50.7450593,71.8511991 50.7319217,70.2974568 C50.750331,68.9481679 50.612969,67.6012616 50.3225618,66.2834668 C49.308749,62.1281551 46.1307381,58.9393585 44.1384318,55.2585236 C43.1685119,53.4665237 42.6407288,52.4174814 40.5877913,53.6479133 C38.5242027,54.8847068 36.6216868,56.5229363 34.6796126,57.943141 Z" id="Path" fill="#DFDCFF"></path>
                    <path d="M118.310813,52.468615 C119.604924,53.3089656 120.771597,54.3308741 121.775079,55.5030252 C122.824127,56.8556827 123.418281,58.5111153 124.425995,59.8948416 C125.402764,61.2360751 126.732383,62.2748415 127.840315,63.509899 C129.520561,65.3829364 130.65866,67.6680274 131.776269,69.9224585 C129.046509,73.4826147 126.070031,76.8466175 122.868815,79.9896281 C122.512501,80.4095054 122.043018,80.7181287 121.516275,80.8787456 C120.788522,80.9560171 120.0705,80.6632901 119.604211,80.0992257 C119.108275,79.5789129 118.756774,78.937461 118.282656,78.3971898 C117.163642,77.2428286 115.672328,76.5215582 114.072649,76.36103 C112.48718,76.2077829 110.891758,76.1858121 109.30267,76.295342 C108.953778,76.3342076 108.600963,76.274915 108.283941,76.1241388 C108.048228,75.9614765 107.857109,75.7422585 107.728096,75.4865732 C105.863694,72.3140447 106.463381,68.330849 107.121151,64.7103149 L108.630496,56.4025083 C108.849176,54.8158404 109.271378,53.2639607 109.886677,51.7851967 C110.458286,50.563428 111.736727,48.4916017 113.308591,48.8573601 C114.893155,49.2260473 116.977716,51.5097439 118.310813,52.468615 Z" id="Path" fill="#DFDCFF"></path>
                </g>
            </g>
        </g>
    </g>
</svg>