<?xml version="1.0" encoding="UTF-8"?>
<svg width="68px" height="68px" viewBox="0 0 68 68" version="1.1" xmlns="http://www.w3.org/2000/svg" xmlns:xlink="http://www.w3.org/1999/xlink">
    <!-- Generator: Sketch 52.6 (67491) - http://www.bohemiancoding.com/sketch -->
    <title>Group 4svg</title>
    <desc>Created with Sketch.</desc>
    <g id="UI" stroke="none" stroke-width="1" fill="none" fill-rule="evenodd">
        <g id="Google-Ads-LP" transform="translate(-977.000000, -1307.000000)">
            <g id="Group-4" transform="translate(977.000000, 1307.000000)">
                <path d="M34.5,25 C27.9090909,25 22.2804545,29.1466667 20,35 C22.2804545,40.8533333 27.9090909,45 34.5,45 C41.0909091,45 46.7195455,40.8533333 49,35 C46.7195455,29.1466667 41.0909091,25 34.5,25 L34.5,25 Z M34.5,41.6666667 C30.8618182,41.6666667 27.9090909,38.68 27.9090909,35 C27.9090909,31.32 30.8618182,28.3333333 34.5,28.3333333 C38.1381818,28.3333333 41.0909091,31.32 41.0909091,35 C41.0909091,38.68 38.1381818,41.6666667 34.5,41.6666667 L34.5,41.6666667 Z M34.5,31 C32.3118182,31 30.5454545,32.7866667 30.5454545,35 C30.5454545,37.2133333 32.3118182,39 34.5,39 C36.6881818,39 38.4545455,37.2133333 38.4545455,35 C38.4545455,32.7866667 36.6881818,31 34.5,31 L34.5,31 Z" id="Mask" fill="#2B2943"></path>
                <circle id="Oval" stroke="#F4F4F4" cx="34" cy="34" r="33.5"></circle>
            </g>
        </g>
    </g>
</svg>