<?xml version="1.0" encoding="UTF-8"?>
<svg width="504px" height="383px" viewBox="0 0 504 383" version="1.1" xmlns="http://www.w3.org/2000/svg" xmlns:xlink="http://www.w3.org/1999/xlink">
    <!-- Generator: Sketch 52.6 (67491) - http://www.bohemiancoding.com/sketch -->
    <title>Group 8svg</title>
    <desc>Created with Sketch.</desc>
    <g id="UI" stroke="none" stroke-width="1" fill="none" fill-rule="evenodd">
        <g id="Google-Ads-LP" transform="translate(-773.000000, -3304.000000)">
            <g id="Group-8" transform="translate(773.000000, 3304.000000)">
                <g id="undraw_marketing_v0iu">
                    <rect id="Rectangle" fill="#F9F9FF" fill-rule="nonzero" x="0.62274" y="22.503865" width="230" height="238" rx="8"></rect>
                    <ellipse id="Oval" fill="#F0EFFF" fill-rule="nonzero" opacity="0.400000006" cx="347.600005" cy="353.014494" rx="129.600005" ry="29.0144939"></ellipse>
                    <rect id="Rectangle" stroke="#3F3D56" fill-rule="nonzero" x="20.62274" y="2.503865" width="230" height="238" rx="8"></rect>
                    <path d="M136.761715,73.518275 C136.383025,73.509455 136.00354,73.50384 135.62274,73.50384 C114.03476,73.5150133 95.1130566,87.9437789 89.3893502,108.759163 C83.6656438,129.574547 92.5498179,151.649228 111.096989,162.696558 C129.644159,173.743887 153.285721,171.042645 168.862905,156.09633 C184.44009,141.150015 188.11587,117.640256 177.844325,98.65246 L138.12274,128.50384 L136.761715,73.518275 Z" id="Path"></path>
                    <polygon id="Path" fill="#04AB6A" fill-rule="nonzero" transform="translate(137.000000, 123.500000) rotate(-10.000000) translate(-137.000000, -123.500000) " points="129.858225 135 119 120.442195 121.572339 118.502521 130.41754 130.362206 152.964043 112 155 114.502103"></polygon>
                    <g id="Group-7" transform="translate(135.655940, 121.503855) scale(-1, 1) translate(-135.655940, -121.503855) translate(67.155940, 53.003855)" fill-rule="nonzero">
                        <path d="M110.688385,45.648625 C120.975576,64.6477928 117.303549,88.178244 101.716666,103.139652 C86.129782,118.10106 62.4687454,120.806843 43.906584,109.750585 C25.3444227,98.694327 16.4549667,76.6003576 22.1873253,55.7692572 C27.9196839,34.9381569 46.8613689,20.5028362 68.4668003,20.500005 C68.8476003,20.500005 69.2270853,20.50562 69.6057753,20.51444 L69.0981803,0.008 C68.8875153,0.00611 68.6778903,-5.68434189e-14 68.4668003,-5.68434189e-14 C37.365985,0.00896458208 10.1766732,20.9748225 2.26128041,51.0515137 C-5.65411234,81.1282049 7.69235349,112.762012 34.7597017,128.079304 C61.8270499,143.396597 95.8173548,138.55046 117.525526,116.279041 C139.233698,94.0076226 143.207759,59.9043572 127.2023,33.23816 L110.688385,45.648625 Z" id="Path" fill="#26AF6F"></path>
                        <path d="M110.688385,45.648625 L127.202305,33.238165 C114.93881,12.8026893 92.9300674,0.215731997 69.0981803,0.008 L69.6057753,20.51444 C86.8167822,20.9176455 102.49336,30.5085164 110.688385,45.648625 Z" id="Path" fill="#6C63FF" opacity="0.100000001"></path>
                    </g>
                    <rect id="Rectangle" stroke="#3F3D56" fill-rule="nonzero" x="272.62274" y="0.503865" width="230" height="96" rx="8"></rect>
                    <path d="M438.20346,74.50386 L412.20346,74.50386 C410.429165,64.2466909 410.429165,53.7610291 412.20346,43.50386 L438.20346,43.50386 C435.27435,53.6296203 435.27435,64.3780997 438.20346,74.50386 Z" id="Path" fill="#04AB6A" fill-rule="nonzero"></path>
                    <path d="M328.62274,53.50386 L302.62274,53.50386 C300.848445,43.2466909 300.848445,32.7610291 302.62274,22.50386 L328.62274,22.50386 C325.69363,32.6296203 325.69363,43.3780997 328.62274,53.50386 Z" id="Path" fill="#04AB6A" fill-rule="nonzero"></path>
                    <path d="M375.12274,53.50386 L401.12274,53.50386 C402.89703,43.2466905 402.89703,32.7610295 401.12274,22.50386 L375.12274,22.50386 C378.051845,32.6296209 378.051845,43.3780991 375.12274,53.50386 Z" id="Path" fill="#E43131" fill-rule="nonzero"></path>
                    <path d="M446.62274,53.50386 L472.62274,53.50386 C474.39703,43.2466905 474.39703,32.7610295 472.62274,22.50386 L446.62274,22.50386 C449.551845,32.6296209 449.551845,43.3780991 446.62274,53.50386 Z" id="Path" fill="#918ECD" fill-rule="nonzero"></path>
                    <path d="M319.12274,239.00386 L293.12274,239.00386 C291.348445,228.746691 291.348445,218.261029 293.12274,208.00386 L319.12274,208.00386 C316.19363,218.12962 316.19363,228.8781 319.12274,239.00386 Z" id="Path" fill="#918ECD" fill-rule="nonzero"></path>
                    <path d="M401.381035,82.02761 L404.956445,83.815315 C404.956445,83.815315 424.32326,132.381315 417.76834,144.00142 C411.21342,155.621525 390.6548,177.37192 390.6548,177.37192 L386.781435,166.347735 L402.62274,132.00385 L401.381035,82.02761 Z" id="Path" fill="#04AB6A" fill-rule="nonzero"></path>
                    <path d="M401.381035,82.02761 L404.956445,83.815315 C404.956445,83.815315 424.32326,132.381315 417.76834,144.00142 C411.21342,155.621525 390.6548,177.37192 390.6548,177.37192 L386.781435,166.347735 L402.62274,132.00385 L401.381035,82.02761 Z" id="Path" fill="#04AB6A" fill-rule="nonzero" opacity="0.1"></path>
                    <path d="M397.50767,324.85768 C397.50767,324.85768 402.57284,336.47777 399.89128,337.37162 C397.20972,338.26547 393.93228,338.265475 390.65478,338.265475 C387.37728,338.265475 383.503955,337.07367 382.908055,335.881865 C382.312155,334.69006 385.29166,326.943335 385.29166,326.943335 L397.50767,324.85768 Z" id="Path" fill="#F2F2F2" fill-rule="nonzero"></path>
                    <path d="M329.27687,330.8167 C329.27687,330.8167 332.554335,341.244985 331.06458,341.840885 C329.574825,342.436785 324.807605,345.11835 322.126045,344.224495 C319.444485,343.33064 315.273175,341.244995 314.37932,340.35113 C313.485465,339.457265 314.37932,334.690065 314.37932,334.690065 L318.550635,328.731065 L329.27687,330.8167 Z" id="Path" fill="#F2F2F2" fill-rule="nonzero"></path>
                    <path d="M387.97324,175.882175 L392.24424,177.37193 C392.24424,177.37193 393.336355,187.502265 392.14455,191.07768 C390.952745,194.653095 388.271185,220.57483 389.76094,225.937945 C391.250695,231.30106 390.356845,239.941645 390.356845,239.941645 C390.356845,239.941645 399.295375,269.14084 397.507665,275.397815 C395.719955,281.65479 396.01791,290.593315 397.80562,295.06258 C399.59333,299.531845 401.08308,301.31955 400.189225,304.894965 C399.29537,308.47038 397.507665,310.25808 399.295375,313.23759 C401.083085,316.2171 404.65849,317.110955 402.870785,319.792515 C401.08308,322.474075 399.295375,324.55973 399.891285,326.347435 C400.487195,328.13514 384.09988,331.4126 382.610125,328.731045 C382.610125,328.731045 387.377345,324.55973 382.610125,322.17612 C377.842905,319.79251 379.332665,310.853985 379.332665,310.853985 C379.332665,310.853985 370.990035,276.589615 371.28799,273.90806 C371.585945,271.226505 358.178145,229.51336 358.178145,229.51336 C358.178145,229.51336 338.51337,289.10356 337.32157,291.78512 C336.12977,294.46668 338.811325,301.02162 337.32157,302.809305 C335.831815,304.59699 337.91747,309.066275 335.831815,310.853985 C333.74616,312.641695 339.407225,319.19661 335.831815,321.58022 C332.256405,323.96383 330.468695,331.4126 330.766645,332.902355 C331.064595,334.39211 315.869095,332.604405 315.869095,330.51875 C315.869095,328.433095 316.167045,326.645385 314.67729,323.069975 C313.187535,319.494565 312.293685,317.110975 313.48549,315.91915 C314.677295,314.727325 315.571145,313.23759 314.37934,309.066275 C313.187535,304.89496 316.167045,292.08307 315.273195,289.69946 C314.379345,287.31585 314.67729,271.2265 314.67729,271.2265 C314.67729,271.2265 317.65679,247.68837 316.76295,243.815 C315.86911,239.94163 316.76295,239.047785 317.0609,237.55803 C317.35885,236.068275 319.146555,219.97892 320.33836,217.595315 C321.530165,215.21171 323.01992,174.392415 329.872795,172.30676 C336.72567,170.221105 387.97324,175.882175 387.97324,175.882175 Z" id="Path" fill="#2F2E41" fill-rule="nonzero"></path>
                    <path d="M390.35687,335.583915 C390.35687,335.583915 401.083105,333.79621 401.679005,335.583915 C402.274905,337.37162 404.062615,351.37532 399.8913,351.67327 C395.719985,351.97122 388.56916,352.865075 387.37736,350.183515 C386.18556,347.501955 380.524485,345.71425 380.524485,345.71425 C380.524485,345.71425 372.181855,343.33064 372.181855,340.649085 C372.181855,337.96753 372.479805,333.79621 373.96956,333.49826 C375.459315,333.20031 381.41834,329.922845 381.41834,328.731045 C381.41834,327.539245 390.35687,335.583915 390.35687,335.583915 Z" id="Path" fill="#2F2E41" fill-rule="nonzero"></path>
                    <path d="M323.31787,340.35113 C323.31787,340.35113 331.0646,337.967525 332.852305,339.45728 C334.64001,340.947035 337.02362,357.33434 332.852305,357.03639 C328.68099,356.73844 317.656805,358.526145 317.0609,356.142535 C316.464995,353.758925 308.42032,353.163035 308.42032,353.163035 C308.42032,353.163035 299.77974,348.99172 300.375645,344.522455 C300.97155,340.05319 301.8654,338.563455 305.44081,338.265485 C309.01622,337.967515 311.69778,333.79622 311.995735,333.49827 C312.29369,333.20032 314.920665,331.022375 315.245905,333.452125 C315.571145,335.881875 319.44451,341.244985 323.31787,340.35113 Z" id="Path" fill="#2F2E41" fill-rule="nonzero"></path>
                    <circle id="Oval" fill="#975B56" fill-rule="nonzero" cx="347.749855" cy="33.4616" r="18.17501"></circle>
                    <path d="M363.541255,37.63291 C363.541255,37.63291 364.73306,57.59563 369.202325,59.383335 C373.67159,61.17104 346.55805,61.17104 346.55805,61.17104 C346.55805,61.17104 346.2601,48.6571 342.386735,45.67759 C338.51337,42.69808 363.541255,37.63291 363.541255,37.63291 Z" id="Path" fill="#975B56" fill-rule="nonzero"></path>
                    <path d="M370.69208,54.91407 C370.69208,54.91407 352.21912,48.061195 345.664195,58.78743 C345.664195,58.78743 324.807625,68.619815 323.31787,74.578835 C321.828115,80.537855 335.831815,125.230505 335.831815,125.230505 C335.831815,125.230505 335.831815,162.17643 332.852315,166.049795 C329.872815,169.92316 324.211735,174.09447 328.0851,174.988325 C331.958465,175.88218 392.740465,182.4371 392.442515,178.563735 C392.144565,174.69037 388.2712,171.41291 392.442515,169.029305 C396.61383,166.6457 393.038415,163.964135 395.719975,156.21741 C398.401535,148.470685 404.956475,84.41122 404.956475,84.41122 C404.956475,84.41122 400.48721,76.36654 399.59336,75.47269 C398.69951,74.57884 370.69208,54.91407 370.69208,54.91407 Z" id="Path" fill="#04AB6A" fill-rule="nonzero"></path>
                    <path d="M317.35887,185.41661 C317.35887,185.41661 305.73878,211.6363 315.869115,215.21171 C325.99945,218.78712 325.40353,187.502275 325.40353,187.502275 L317.35887,185.41661 Z" id="Path" fill="#975B56" fill-rule="nonzero"></path>
                    <path d="M356.46787,36.841775 C355.414335,34.730825 353.83728,32.29557 351.481545,32.424115 C350.29036,32.489115 349.26314,33.23029 348.201485,33.77437 C347.13983,34.31845 345.779575,34.655735 344.808835,33.962335 C343.38894,32.9481 343.829185,30.54247 342.55913,29.345915 C341.17263,28.039675 338.384045,28.76897 337.489445,27.087225 C337.01177,26.189225 337.39754,25.07509 337.189235,24.07953 C335.738,24.10677 334.240325,24.12587 332.895145,23.580615 C331.549965,23.03536 330.385145,21.77201 330.42276,20.32101 C330.504056,19.3224036 330.983877,18.3985498 331.75405,17.757725 C333.585655,16.09229 336.23508,15.772915 338.495225,14.762865 C340.29385,13.95906 341.85779,12.706365 343.6256,11.836865 C346.668135,10.340415 350.17828,10.05022 353.55905,10.30857 C358.68517,10.70029 363.86905,12.40147 367.586275,15.952935 C371.3035,19.5044 373.270775,25.107285 371.667645,29.992005 C370.759225,32.759925 368.834065,35.086465 367.75973,37.794305 C367.101131,39.6473519 366.644608,41.5661148 366.398105,43.51721 L365.643845,48.144945 C365.76123,47.424745 364.179845,45.618275 363.661215,45.188445 C362.52998,44.25085 360.884495,44.56898 359.83426,43.70052 C358.28082,42.415945 357.38187,38.673175 356.46787,36.841775 Z" id="Path" fill="#2F2E41" fill-rule="nonzero"></path>
                    <path d="M330.170745,72.49318 L325.40353,75.47268 C325.40353,75.47268 317.6568,122.250985 318.550655,128.80591 C319.44451,135.360835 314.975245,172.306755 316.465,175.286265 C317.954755,178.265775 318.550655,178.861675 318.550655,180.649385 C318.550655,182.437095 314.37934,188.99201 317.0609,190.183815 C319.74246,191.37562 329.574845,193.461275 329.574845,190.183815 C329.574845,186.906355 327.787135,182.43709 331.0646,180.35143 C334.342065,178.26577 336.725665,164.85798 336.725665,164.85798 C336.725665,164.85798 338.21542,151.152235 339.705165,148.470675 C341.19491,145.789115 343.28058,135.95673 343.28058,131.78542 C343.28058,127.61411 346.85599,110.630895 344.770335,101.99032 C342.68468,93.349745 342.088785,70.10957 330.170745,72.49318 Z" id="Path" fill="#000000" fill-rule="nonzero" opacity="0.1"></path>
                    <path d="M328.08509,71.599325 L323.31787,74.578825 C323.31787,74.578825 315.571145,121.357135 316.465,127.912055 C317.358855,134.466975 312.889585,171.4129 314.37934,174.39241 C315.869095,177.37192 316.465,177.967825 316.465,179.75553 C316.465,181.543235 312.293685,188.09816 314.975245,189.28996 C317.656805,190.48176 327.489185,192.567425 327.489185,189.28996 C327.489185,186.012495 325.70148,181.543235 328.97894,179.45758 C332.2564,177.371925 334.64001,163.964125 334.64001,163.964125 C334.64001,163.964125 336.129765,150.25838 337.61951,147.57682 C339.109255,144.89526 341.19492,135.06288 341.19492,130.891565 C341.19492,126.72025 344.770335,109.737065 342.684675,101.096465 C340.599015,92.455865 340.00313,69.215715 328.08509,71.599325 Z" id="Path" fill="#04AB6A" fill-rule="nonzero"></path>
                </g>
            </g>
        </g>
    </g>
</svg>