<?xml version="1.0" encoding="UTF-8"?>
<svg width="470px" height="456px" viewBox="0 0 470 456" version="1.1" xmlns="http://www.w3.org/2000/svg" xmlns:xlink="http://www.w3.org/1999/xlink">
    <!-- Generator: Sketch 52.6 (67491) - http://www.bohemiancoding.com/sketch -->
    <title>Group 18svg</title>
    <desc>Created with Sketch.</desc>
    <g id="UI" stroke="none" stroke-width="1" fill="none" fill-rule="evenodd">
        <g id="Google-Ads-LP" transform="translate(-813.000000, -4981.000000)" fill-rule="nonzero">
            <g id="Group-18" transform="translate(813.000000, 4981.000000)">
                <g id="undraw_modern_professional_yt9h" transform="translate(112.000000, 0.000000)">
                    <path d="M344.701534,244.482857 C365.150066,192.931674 360.520861,134.810152 332.170099,87.1456865 L46.4999987,126.699998 L320.263183,69.6460228 C286.504434,25.6959217 234.218969,-0.0455788085 178.799996,1.46191876e-13 C80.2171502,1.46191876e-13 0.299999535,79.9171506 0.299999535,178.499997 C0.301964374,186.647606 0.857022027,194.785684 1.96134451,202.858107 L344.701534,244.482857 Z" id="Path" fill="#F0FAF6"></path>
                    <path d="M12.2311493,242.767206 C38.0317699,309.592082 102.875121,356.999994 178.799996,356.999994 C250.044595,356.999994 311.531852,315.256132 340.160165,254.89724 L12.2311493,242.767206 Z" id="Path" fill="#F0FAF6"></path>
                    <path d="M160.599997,135.099998 C160.599997,135.099998 183.699996,125.034383 194.549996,135.667187 C205.399996,146.299991 165.499997,142.799998 160.599997,135.099998 Z" id="Path" fill="#3F3D56"></path>
                    <path d="M200.487606,87.3632815 C192.724718,74.2463947 177.36646,73.6350917 177.36646,73.6350917 C177.36646,73.6350917 162.400712,71.7212918 152.800282,91.6984584 C143.851909,110.318829 131.502019,128.297174 150.812044,132.656067 L154.299997,121.799998 L156.460071,133.464287 C159.209445,133.662034 161.967582,133.709172 164.722108,133.605491 C185.401591,132.937831 205.095671,133.800826 204.461548,126.380161 C203.618601,116.515432 207.957068,99.9843443 200.487606,87.3632815 Z" id="Path" fill="#2F2E41"></path>
                    <ellipse id="Oval" fill="#3F3D56" cx="179.149996" cy="278.599995" rx="39.1999993" ry="9.09999985"></ellipse>
                    <rect id="Rectangle" fill="#2F2E41" transform="translate(191.749997, 392.349993) rotate(-4.229160) translate(-191.749997, -392.349993) " x="172.798215" y="391.650137" width="37.9035644" height="1.39971298"></rect>
                    <rect id="Rectangle" fill="#2F2E41" transform="translate(154.649990, 389.899959) rotate(-61.189210) translate(-154.649990, -389.899959) " x="153.950134" y="381.911062" width="1.39971298" height="15.9777937"></rect>
                    <rect id="Rectangle" fill="#2F2E41" x="174.949997" y="380.449994" width="12.5999998" height="1.39999998"></rect>
                    <polygon id="Path" fill="#2F2E41" points="142.048597 455.397592 140.651397 455.302392 151.151397 292.902395 152.548597 292.997595"></polygon>
                    <polygon id="Path" fill="#2F2E41" points="193.850696 455.384292 186.850696 295.784295 188.249296 295.715695 195.249296 455.315692"></polygon>
                    <rect id="Rectangle" fill="#2F2E41" transform="translate(213.800027, 374.849965) rotate(-4.722290) translate(-213.800027, -374.849965) " x="213.09989" y="294.075759" width="1.40027298" height="161.548412"></rect>
                    <path d="M211.349996,325.149994 C211.349996,325.149994 201.549996,343.349994 195.249996,343.349994 C188.949996,343.349994 189.649996,355.249994 191.049996,358.049994 C192.449996,360.849994 195.949996,367.149994 190.349996,376.249994 C188.393916,379.428617 188.743832,383.034281 190.027436,386.380827 C193.623924,395.757397 207.614187,392.916622 207.167867,382.883893 C207.162948,382.773293 207.156991,382.661993 207.149996,382.549993 C206.449996,371.349994 212.049996,353.849994 217.649996,349.649994 C223.249996,345.449994 228.149996,334.249994 228.149996,334.249994 L211.349996,325.149994 Z" id="Path" fill="#FFB8B8"></path>
                    <path d="M144.149997,320.949995 C144.149997,320.949995 153.949997,339.149994 160.249997,339.149994 C166.549997,339.149994 165.849997,351.049994 164.449997,353.849994 C163.049997,356.649994 159.549997,362.949994 165.149997,372.049994 C167.106077,375.228617 166.756161,378.834282 165.472557,382.180827 C161.876069,391.557397 147.885813,388.716622 148.332126,378.683894 C148.337045,378.573294 148.343002,378.461994 148.349997,378.349994 C149.049997,367.149994 143.449997,349.649994 137.849997,345.449994 C132.249997,341.249994 127.349997,330.049994 127.349997,330.049994 L144.149997,320.949995 Z" id="Path" fill="#FFB8B8"></path>
                    <path d="M151.849997,231.349996 L147.649997,240.449996 C147.649997,240.449996 86.0499981,260.749996 91.649998,284.549995 C97.2499979,308.349995 124.549997,345.449994 128.749997,344.049994 C132.949997,342.649994 155.349997,338.449994 156.049997,326.549994 C156.749997,314.649995 139.949997,293.649995 139.949997,293.649995 L163.049997,272.649995 L196.664241,271.949995 L225.349996,293.649995 C225.349996,293.649995 195.249996,320.249995 208.549996,330.749994 C221.849996,341.249994 241.449995,348.249994 244.249995,344.049994 C247.049995,339.849994 278.549995,277.549995 273.649995,271.949995 C268.749995,266.349995 219.049996,245.349996 219.049996,245.349996 L205.749996,226.449996 L153.949997,223.649996 L151.849997,231.349996 Z" id="Path" fill="#2F2E41"></path>
                    <path d="M164.449997,115.849998 C164.449997,115.849998 167.949997,138.949998 160.949997,141.749998 C153.949997,144.549998 174.949997,156.449997 174.949997,156.449997 L186.849996,156.449997 L194.549996,140.349998 C194.549996,140.349998 187.549996,127.749998 191.749996,115.849998 C195.949996,103.949998 164.449997,115.849998 164.449997,115.849998 Z" id="Path" fill="#FFB8B8"></path>
                    <path d="M164.449997,115.849998 C164.449997,115.849998 167.949997,138.949998 160.949997,141.749998 C153.949997,144.549998 174.949997,156.449997 174.949997,156.449997 L186.849996,156.449997 L194.549996,140.349998 C194.549996,140.349998 187.549996,127.749998 191.749996,115.849998 C195.949996,103.949998 164.449997,115.849998 164.449997,115.849998 Z" id="Path" fill="#000000" opacity="0.1"></path>
                    <path d="M159.549997,135.449998 C159.549997,135.449998 167.249997,143.849998 168.649997,145.249998 C170.049997,146.649998 176.349997,154.349997 189.649996,143.149998 C202.949996,131.949998 204.349996,145.249998 204.349996,145.249998 L204.349996,229.249996 C204.349996,229.249996 193.149996,224.349996 184.049996,229.249996 C174.949997,234.149996 156.049997,227.849996 156.049997,227.849996 L152.549997,141.049998 L159.549997,135.449998 Z" id="Path" fill="#04AB6A"></path>
                    <path d="M164.69177,135.449998 C164.69177,135.449998 158.149997,132.649998 152.549997,135.449998 C146.949997,138.249998 127.349997,152.249997 128.749997,158.549997 C130.149997,164.849997 148.349997,208.949996 135.749997,229.949996 C123.149997,250.949996 121.049997,256.549996 121.049997,256.549996 L151.849997,240.449996 C151.849997,240.449996 175.649997,225.749996 173.549997,216.649996 C171.449997,207.549996 164.69177,135.449998 164.69177,135.449998 Z" id="Path" fill="#3F3D56"></path>
                    <path d="M192.458256,135.449998 C192.458256,135.449998 207.149996,136.849998 207.849996,138.249998 C208.549996,139.649998 229.899996,145.599998 228.499996,151.899997 C227.099996,158.199997 207.849996,214.549996 216.249996,225.049996 C224.649996,235.549996 238.649995,250.249996 233.749996,251.649996 C228.849996,253.049996 220.449996,249.549996 212.049996,251.649996 C203.649996,253.749996 184.049996,236.249996 186.149996,217.349996 C188.249996,198.449997 186.166509,140.349998 192.458256,135.449998 Z" id="Path" fill="#3F3D56"></path>
                    <path d="M157.449997,269.149995 L157.449997,276.149995 C157.449997,276.149995 153.949997,292.249995 165.149997,291.549995 C176.349997,290.849995 169.349997,271.949995 169.349997,271.949995 L168.649997,265.649995 L157.449997,269.149995 Z" id="Path" fill="#FFB8B8"></path>
                    <path d="M188.949996,269.849995 C188.949996,269.849995 181.249996,285.949995 188.949996,287.349995 C196.649996,288.749995 202.249996,278.249995 202.249996,275.449995 C202.249996,272.649995 188.949996,269.849995 188.949996,269.849995 Z" id="Path" fill="#FFB8B8"></path>
                    <polygon id="Path" fill="#2F2E41" points="163.749997 455.366792 162.349997 455.333192 166.549997 294.333195 167.949997 294.366795"></polygon>
                    <ellipse id="Oval" fill="#FFB8B8" cx="199.099996" cy="106.399998" rx="1.39999998" ry="2.79999995"></ellipse>
                    <ellipse id="Oval" fill="#FFB8B8" cx="157.799997" cy="106.399998" rx="1.39999998" ry="2.79999995"></ellipse>
                    <path d="M211.349996,144.549998 C211.349996,144.549998 228.849996,144.549998 228.149996,151.549997 C227.449996,158.549997 204.349996,278.949995 204.349996,278.949995 C204.349996,278.949995 194.549996,269.849995 186.149996,271.949995 L211.349996,144.549998 Z" id="Path" fill="#3F3D56"></path>
                    <path d="M143.449997,146.649998 C143.449997,146.649998 125.949997,150.149997 125.949997,160.649997 C125.949997,171.149997 151.149997,271.949995 154.649997,271.949995 C158.149997,271.949995 171.449997,269.849995 171.449997,266.349995 C171.449997,262.849996 143.449997,146.649998 143.449997,146.649998 Z" id="Path" fill="#3F3D56"></path>
                    <path d="M147.299997,167.299997 L163.049997,228.893696 C163.049997,228.893696 155.699997,174.999997 147.299997,167.299997 Z" id="Path" fill="#000000" opacity="0.2"></path>
                    <path d="M208.561903,158.645344 L192.632801,239.175856 C192.632801,239.175856 197.723817,163.290691 208.561903,158.645344 Z" id="Path" fill="#000000" opacity="0.2"></path>
                    <circle id="Oval" fill="#FFB8B8" cx="178.449997" cy="106.749998" r="20.2999997"></circle>
                    <polygon id="Path" fill="#2F2E41" points="197.055296 86.0985985 181.882096 78.1507987 160.928997 81.4022986 156.593897 100.549398 167.385097 100.134298 170.399997 93.0999984 170.399997 100.018798 175.379797 99.8269983 178.269397 88.6276985 180.076096 100.549398 197.778396 100.188198"></polygon>
                    <path d="M298.208101,455.013663 L296.808101,454.986321 C297.349571,439.420148 299.010435,423.913113 301.777828,408.585345 C307.831736,375.768744 317.898338,354.216402 331.69804,344.527142 L332.501948,345.672846 C300.265716,368.306632 298.224509,454.148918 298.208101,455.013663 Z" id="Path" fill="#2F2E41"></path>
                    <path d="M315.708101,454.678692 L314.308101,454.651343 C314.338201,453.100955 315.213201,416.561502 329.59804,406.462091 L330.401948,407.607795 C316.597458,417.299799 315.71494,454.306145 315.708101,454.678692 Z" id="Path" fill="#2F2E41"></path>
                    <circle id="Oval" fill="#04AB6A" cx="340.499994" cy="338.099994" r="6.99999988"></circle>
                    <circle id="Oval" fill="#04AB6A" cx="336.999994" cy="398.999993" r="6.99999988"></circle>
                    <path d="M312.44524,349.996221 C313.760785,358.399021 310.332003,365.914662 310.332003,365.914662 C310.332003,365.914662 304.7703,359.806595 303.454755,351.403767 C302.13921,343.000939 305.567985,335.485326 305.567985,335.485326 C305.567985,335.485326 311.129688,341.593393 312.44524,349.996221 Z" id="Path" fill="#2F2E41"></path>
                    <path d="M335.326259,370.403846 C327.281194,373.163386 319.283113,371.09658 319.283113,371.09658 C319.283113,371.09658 324.328664,364.555682 332.373729,361.796142 C340.418794,359.036602 348.416882,361.103408 348.416882,361.103408 C348.416882,361.103408 343.371324,367.644306 335.326259,370.403846 Z" id="Path" fill="#2F2E41"></path>
                    <path d="M335.584734,423.716643 C331.943592,424.860309 328.065959,425.027745 324.339787,424.202198 C329.172746,418.049014 337.167919,415.306586 344.760187,417.197788 C342.325252,420.136657 339.161249,422.384576 335.584734,423.716643 Z" id="Path" fill="#2F2E41"></path>
                </g>
                <g id="Group-17" transform="translate(0.000000, 23.000000)" fill="#000000">
                    <polygon id="Path" points="155.753497 96.5999984 0.699999869 96.5999984 0.699999869 0 177.799997 0 177.799997 67.4309989 176.399997 67.4309989 176.399997 1.39999998 2.09999985 1.39999998 2.09999985 95.1999984 155.753497 95.1999984"></polygon>
                    <polygon id="Path" points="218.997096 96.9499983 177.099997 96.9499983 177.099997 95.5499984 213.602896 95.5499984 177.109797 75.2373987 177.790197 74.0144987"></polygon>
                    <rect id="Rectangle" x="20.9999995" y="61.599936" width="136.499998" height="1.39999998"></rect>
                </g>
            </g>
        </g>
    </g>
</svg>