<?xml version="1.0" encoding="UTF-8"?>
<svg width="483px" height="383px" viewBox="0 0 483 383" version="1.1" xmlns="http://www.w3.org/2000/svg" xmlns:xlink="http://www.w3.org/1999/xlink">
    <!-- Generator: Sketch 52.6 (67491) - http://www.bohemiancoding.com/sketch -->
    <title>ilu 1svg</title>
    <desc>Created with Sketch.</desc>
    <g id="UI" stroke="none" stroke-width="1" fill="none" fill-rule="evenodd">
        <g id="Product" transform="translate(-804.000000, -898.000000)">
            <g id="ilu-1" transform="translate(804.000000, 898.000000)">
                <g id="undraw_marketing_v0iu">
                    <ellipse id="Oval" fill="#202020" fill-rule="nonzero" opacity="0.049999997" cx="327.600005" cy="353.014494" rx="129.600005" ry="29.0144939"></ellipse>
                    <rect id="Rectangle" fill="#3F3D56" fill-rule="nonzero" x="0.62274" y="2.503865" width="230" height="238" rx="8"></rect>
                    <path d="M116.761715,73.518275 C116.383025,73.509455 116.00354,73.50384 115.62274,73.50384 C94.0347596,73.5150133 75.1130566,87.9437789 69.3893502,108.759163 C63.6656438,129.574547 72.5498179,151.649228 91.0969886,162.696558 C109.644159,173.743887 133.285721,171.042645 148.862905,156.09633 C164.44009,141.150015 168.11587,117.640256 157.844325,98.65246 L118.12274,128.50384 L116.761715,73.518275 Z" id="Path"></path>
                    <polygon id="Path" fill="#FFFFFF" fill-rule="nonzero" transform="translate(117.000000, 123.500000) rotate(-10.000000) translate(-117.000000, -123.500000) " points="109.858225 135 99 120.442195 101.572339 118.502521 110.41754 130.362206 132.964043 112 135 114.502103"></polygon>
                    <g id="Group-7" transform="translate(115.655940, 121.503855) scale(-1, 1) translate(-115.655940, -121.503855) translate(47.155940, 53.003855)" fill-rule="nonzero">
                        <path d="M110.688385,45.648625 C120.975576,64.6477928 117.303549,88.178244 101.716666,103.139652 C86.129782,118.10106 62.4687454,120.806843 43.906584,109.750585 C25.3444227,98.694327 16.4549667,76.6003576 22.1873253,55.7692572 C27.9196839,34.9381569 46.8613689,20.5028362 68.4668003,20.500005 C68.8476003,20.500005 69.2270853,20.50562 69.6057753,20.51444 L69.0981803,0.008 C68.8875153,0.00611 68.6778903,-5.68434189e-14 68.4668003,-5.68434189e-14 C37.365985,0.00896458208 10.1766732,20.9748225 2.26128041,51.0515137 C-5.65411234,81.1282049 7.69235349,112.762012 34.7597017,128.079304 C61.8270499,143.396597 95.8173548,138.55046 117.525526,116.279041 C139.233698,94.0076226 143.207759,59.9043572 127.2023,33.23816 L110.688385,45.648625 Z" id="Path" fill="#26AF6F"></path>
                        <path d="M110.688385,45.648625 L127.202305,33.238165 C114.93881,12.8026893 92.9300674,0.215731997 69.0981803,0.008 L69.6057753,20.51444 C86.8167822,20.9176455 102.49336,30.5085164 110.688385,45.648625 Z" id="Path" fill="#6C63FF" opacity="0.100000001"></path>
                    </g>
                    <rect id="Rectangle" fill="#3F3D56" fill-rule="nonzero" x="252.62274" y="0.503865" width="230" height="96" rx="8"></rect>
                    <path d="M345.5381,74.50386 L319.5381,74.50386 C317.763805,64.2466909 317.763805,53.7610291 319.5381,43.50386 L345.5381,43.50386 C342.60899,53.6296203 342.60899,64.3780997 345.5381,74.50386 Z" id="Path" fill="#FFFFFF" fill-rule="nonzero"></path>
                    <path d="M418.20346,74.50386 L392.20346,74.50386 C390.429165,64.2466909 390.429165,53.7610291 392.20346,43.50386 L418.20346,43.50386 C415.27435,53.6296203 415.27435,64.3780997 418.20346,74.50386 Z" id="Path" fill="#04AB6A" fill-rule="nonzero"></path>
                    <path d="M308.62274,53.50386 L282.62274,53.50386 C280.848445,43.2466909 280.848445,32.7610291 282.62274,22.50386 L308.62274,22.50386 C305.69363,32.6296203 305.69363,43.3780997 308.62274,53.50386 Z" id="Path" fill="#04AB6A" fill-rule="nonzero"></path>
                    <path d="M355.12274,53.50386 L381.12274,53.50386 C382.89703,43.2466905 382.89703,32.7610295 381.12274,22.50386 L355.12274,22.50386 C358.051845,32.6296209 358.051845,43.3780991 355.12274,53.50386 Z" id="Path" fill="#E43131" fill-rule="nonzero"></path>
                    <path d="M426.62274,53.50386 L452.62274,53.50386 C454.39703,43.2466905 454.39703,32.7610295 452.62274,22.50386 L426.62274,22.50386 C429.551845,32.6296209 429.551845,43.3780991 426.62274,53.50386 Z" id="Path" fill="#FFFFFF" fill-rule="nonzero"></path>
                    <path d="M299.12274,239.00386 L273.12274,239.00386 C271.348445,228.746691 271.348445,218.261029 273.12274,208.00386 L299.12274,208.00386 C296.19363,218.12962 296.19363,228.8781 299.12274,239.00386 Z" id="Path" fill="#DDDDDD" fill-rule="nonzero"></path>
                    <path d="M381.381035,82.02761 L384.956445,83.815315 C384.956445,83.815315 404.32326,132.381315 397.76834,144.00142 C391.21342,155.621525 370.6548,177.37192 370.6548,177.37192 L366.781435,166.347735 L382.62274,132.00385 L381.381035,82.02761 Z" id="Path" fill="#04AB6A" fill-rule="nonzero"></path>
                    <path d="M381.381035,82.02761 L384.956445,83.815315 C384.956445,83.815315 404.32326,132.381315 397.76834,144.00142 C391.21342,155.621525 370.6548,177.37192 370.6548,177.37192 L366.781435,166.347735 L382.62274,132.00385 L381.381035,82.02761 Z" id="Path" fill="#04AB6A" fill-rule="nonzero" opacity="0.1"></path>
                    <path d="M377.50767,324.85768 C377.50767,324.85768 382.57284,336.47777 379.89128,337.37162 C377.20972,338.26547 373.93228,338.265475 370.65478,338.265475 C367.37728,338.265475 363.503955,337.07367 362.908055,335.881865 C362.312155,334.69006 365.29166,326.943335 365.29166,326.943335 L377.50767,324.85768 Z" id="Path" fill="#F2F2F2" fill-rule="nonzero"></path>
                    <path d="M309.27687,330.8167 C309.27687,330.8167 312.554335,341.244985 311.06458,341.840885 C309.574825,342.436785 304.807605,345.11835 302.126045,344.224495 C299.444485,343.33064 295.273175,341.244995 294.37932,340.35113 C293.485465,339.457265 294.37932,334.690065 294.37932,334.690065 L298.550635,328.731065 L309.27687,330.8167 Z" id="Path" fill="#F2F2F2" fill-rule="nonzero"></path>
                    <path d="M367.97324,175.882175 L372.24424,177.37193 C372.24424,177.37193 373.336355,187.502265 372.14455,191.07768 C370.952745,194.653095 368.271185,220.57483 369.76094,225.937945 C371.250695,231.30106 370.356845,239.941645 370.356845,239.941645 C370.356845,239.941645 379.295375,269.14084 377.507665,275.397815 C375.719955,281.65479 376.01791,290.593315 377.80562,295.06258 C379.59333,299.531845 381.08308,301.31955 380.189225,304.894965 C379.29537,308.47038 377.507665,310.25808 379.295375,313.23759 C381.083085,316.2171 384.65849,317.110955 382.870785,319.792515 C381.08308,322.474075 379.295375,324.55973 379.891285,326.347435 C380.487195,328.13514 364.09988,331.4126 362.610125,328.731045 C362.610125,328.731045 367.377345,324.55973 362.610125,322.17612 C357.842905,319.79251 359.332665,310.853985 359.332665,310.853985 C359.332665,310.853985 350.990035,276.589615 351.28799,273.90806 C351.585945,271.226505 338.178145,229.51336 338.178145,229.51336 C338.178145,229.51336 318.51337,289.10356 317.32157,291.78512 C316.12977,294.46668 318.811325,301.02162 317.32157,302.809305 C315.831815,304.59699 317.91747,309.066275 315.831815,310.853985 C313.74616,312.641695 319.407225,319.19661 315.831815,321.58022 C312.256405,323.96383 310.468695,331.4126 310.766645,332.902355 C311.064595,334.39211 295.869095,332.604405 295.869095,330.51875 C295.869095,328.433095 296.167045,326.645385 294.67729,323.069975 C293.187535,319.494565 292.293685,317.110975 293.48549,315.91915 C294.677295,314.727325 295.571145,313.23759 294.37934,309.066275 C293.187535,304.89496 296.167045,292.08307 295.273195,289.69946 C294.379345,287.31585 294.67729,271.2265 294.67729,271.2265 C294.67729,271.2265 297.65679,247.68837 296.76295,243.815 C295.86911,239.94163 296.76295,239.047785 297.0609,237.55803 C297.35885,236.068275 299.146555,219.97892 300.33836,217.595315 C301.530165,215.21171 303.01992,174.392415 309.872795,172.30676 C316.72567,170.221105 367.97324,175.882175 367.97324,175.882175 Z" id="Path" fill="#2F2E41" fill-rule="nonzero"></path>
                    <path d="M370.35687,335.583915 C370.35687,335.583915 381.083105,333.79621 381.679005,335.583915 C382.274905,337.37162 384.062615,351.37532 379.8913,351.67327 C375.719985,351.97122 368.56916,352.865075 367.37736,350.183515 C366.18556,347.501955 360.524485,345.71425 360.524485,345.71425 C360.524485,345.71425 352.181855,343.33064 352.181855,340.649085 C352.181855,337.96753 352.479805,333.79621 353.96956,333.49826 C355.459315,333.20031 361.41834,329.922845 361.41834,328.731045 C361.41834,327.539245 370.35687,335.583915 370.35687,335.583915 Z" id="Path" fill="#2F2E41" fill-rule="nonzero"></path>
                    <path d="M303.31787,340.35113 C303.31787,340.35113 311.0646,337.967525 312.852305,339.45728 C314.64001,340.947035 317.02362,357.33434 312.852305,357.03639 C308.68099,356.73844 297.656805,358.526145 297.0609,356.142535 C296.464995,353.758925 288.42032,353.163035 288.42032,353.163035 C288.42032,353.163035 279.77974,348.99172 280.375645,344.522455 C280.97155,340.05319 281.8654,338.563455 285.44081,338.265485 C289.01622,337.967515 291.69778,333.79622 291.995735,333.49827 C292.29369,333.20032 294.920665,331.022375 295.245905,333.452125 C295.571145,335.881875 299.44451,341.244985 303.31787,340.35113 Z" id="Path" fill="#2F2E41" fill-rule="nonzero"></path>
                    <circle id="Oval" fill="#975B56" fill-rule="nonzero" cx="327.749855" cy="33.4616" r="18.17501"></circle>
                    <path d="M343.541255,37.63291 C343.541255,37.63291 344.73306,57.59563 349.202325,59.383335 C353.67159,61.17104 326.55805,61.17104 326.55805,61.17104 C326.55805,61.17104 326.2601,48.6571 322.386735,45.67759 C318.51337,42.69808 343.541255,37.63291 343.541255,37.63291 Z" id="Path" fill="#975B56" fill-rule="nonzero"></path>
                    <path d="M350.69208,54.91407 C350.69208,54.91407 332.21912,48.061195 325.664195,58.78743 C325.664195,58.78743 304.807625,68.619815 303.31787,74.578835 C301.828115,80.537855 315.831815,125.230505 315.831815,125.230505 C315.831815,125.230505 315.831815,162.17643 312.852315,166.049795 C309.872815,169.92316 304.211735,174.09447 308.0851,174.988325 C311.958465,175.88218 372.740465,182.4371 372.442515,178.563735 C372.144565,174.69037 368.2712,171.41291 372.442515,169.029305 C376.61383,166.6457 373.038415,163.964135 375.719975,156.21741 C378.401535,148.470685 384.956475,84.41122 384.956475,84.41122 C384.956475,84.41122 380.48721,76.36654 379.59336,75.47269 C378.69951,74.57884 350.69208,54.91407 350.69208,54.91407 Z" id="Path" fill="#04AB6A" fill-rule="nonzero"></path>
                    <path d="M297.35887,185.41661 C297.35887,185.41661 285.73878,211.6363 295.869115,215.21171 C305.99945,218.78712 305.40353,187.502275 305.40353,187.502275 L297.35887,185.41661 Z" id="Path" fill="#975B56" fill-rule="nonzero"></path>
                    <path d="M336.46787,36.841775 C335.414335,34.730825 333.83728,32.29557 331.481545,32.424115 C330.29036,32.489115 329.26314,33.23029 328.201485,33.77437 C327.13983,34.31845 325.779575,34.655735 324.808835,33.962335 C323.38894,32.9481 323.829185,30.54247 322.55913,29.345915 C321.17263,28.039675 318.384045,28.76897 317.489445,27.087225 C317.01177,26.189225 317.39754,25.07509 317.189235,24.07953 C315.738,24.10677 314.240325,24.12587 312.895145,23.580615 C311.549965,23.03536 310.385145,21.77201 310.42276,20.32101 C310.504056,19.3224036 310.983877,18.3985498 311.75405,17.757725 C313.585655,16.09229 316.23508,15.772915 318.495225,14.762865 C320.29385,13.95906 321.85779,12.706365 323.6256,11.836865 C326.668135,10.340415 330.17828,10.05022 333.55905,10.30857 C338.68517,10.70029 343.86905,12.40147 347.586275,15.952935 C351.3035,19.5044 353.270775,25.107285 351.667645,29.992005 C350.759225,32.759925 348.834065,35.086465 347.75973,37.794305 C347.101131,39.6473519 346.644608,41.5661148 346.398105,43.51721 L345.643845,48.144945 C345.76123,47.424745 344.179845,45.618275 343.661215,45.188445 C342.52998,44.25085 340.884495,44.56898 339.83426,43.70052 C338.28082,42.415945 337.38187,38.673175 336.46787,36.841775 Z" id="Path" fill="#2F2E41" fill-rule="nonzero"></path>
                    <path d="M310.170745,72.49318 L305.40353,75.47268 C305.40353,75.47268 297.6568,122.250985 298.550655,128.80591 C299.44451,135.360835 294.975245,172.306755 296.465,175.286265 C297.954755,178.265775 298.550655,178.861675 298.550655,180.649385 C298.550655,182.437095 294.37934,188.99201 297.0609,190.183815 C299.74246,191.37562 309.574845,193.461275 309.574845,190.183815 C309.574845,186.906355 307.787135,182.43709 311.0646,180.35143 C314.342065,178.26577 316.725665,164.85798 316.725665,164.85798 C316.725665,164.85798 318.21542,151.152235 319.705165,148.470675 C321.19491,145.789115 323.28058,135.95673 323.28058,131.78542 C323.28058,127.61411 326.85599,110.630895 324.770335,101.99032 C322.68468,93.349745 322.088785,70.10957 310.170745,72.49318 Z" id="Path" fill="#000000" fill-rule="nonzero" opacity="0.1"></path>
                    <path d="M308.08509,71.599325 L303.31787,74.578825 C303.31787,74.578825 295.571145,121.357135 296.465,127.912055 C297.358855,134.466975 292.889585,171.4129 294.37934,174.39241 C295.869095,177.37192 296.465,177.967825 296.465,179.75553 C296.465,181.543235 292.293685,188.09816 294.975245,189.28996 C297.656805,190.48176 307.489185,192.567425 307.489185,189.28996 C307.489185,186.012495 305.70148,181.543235 308.97894,179.45758 C312.2564,177.371925 314.64001,163.964125 314.64001,163.964125 C314.64001,163.964125 316.129765,150.25838 317.61951,147.57682 C319.109255,144.89526 321.19492,135.06288 321.19492,130.891565 C321.19492,126.72025 324.770335,109.737065 322.684675,101.096465 C320.599015,92.455865 320.00313,69.215715 308.08509,71.599325 Z" id="Path" fill="#04AB6A" fill-rule="nonzero"></path>
                </g>
            </g>
        </g>
    </g>
</svg>