<?xml version="1.0" encoding="UTF-8"?>
<svg width="707px" height="498px" viewBox="0 0 707 498" version="1.1" xmlns="http://www.w3.org/2000/svg" xmlns:xlink="http://www.w3.org/1999/xlink">
    <!-- Generator: Sketch 52.6 (67491) - http://www.bohemiancoding.com/sketch -->
    <title>ilu 2svg</title>
    <desc>Created with Sketch.</desc>
    <defs>
        <rect id="path-1" x="31.0000049" y="1" width="233.576128" height="60.1371864" rx="6"></rect>
        <filter x="-37.2%" y="-84.8%" width="174.5%" height="389.3%" filterUnits="objectBoundingBox" id="filter-2">
            <feMorphology radius="4" operator="erode" in="SourceAlpha" result="shadowSpreadOuter1"></feMorphology>
            <feOffset dx="0" dy="36" in="shadowSpreadOuter1" result="shadowOffsetOuter1"></feOffset>
            <feGaussianBlur stdDeviation="27" in="shadowOffsetOuter1" result="shadowBlurOuter1"></feGaussianBlur>
            <feColorMatrix values="0 0 0 0 0   0 0 0 0 0   0 0 0 0 0  0 0 0 0.07 0" type="matrix" in="shadowBlurOuter1"></feColorMatrix>
        </filter>
        <rect id="path-3" x="1" y="161.199986" width="233.576128" height="60.1371864" rx="6"></rect>
        <filter x="-37.2%" y="-84.8%" width="174.5%" height="389.3%" filterUnits="objectBoundingBox" id="filter-4">
            <feMorphology radius="4" operator="erode" in="SourceAlpha" result="shadowSpreadOuter1"></feMorphology>
            <feOffset dx="0" dy="36" in="shadowSpreadOuter1" result="shadowOffsetOuter1"></feOffset>
            <feGaussianBlur stdDeviation="27" in="shadowOffsetOuter1" result="shadowBlurOuter1"></feGaussianBlur>
            <feColorMatrix values="0 0 0 0 0   0 0 0 0 0   0 0 0 0 0  0 0 0 0.07 0" type="matrix" in="shadowBlurOuter1"></feColorMatrix>
        </filter>
        <rect id="path-5" x="77.2063521" y="81.1596387" width="233.576128" height="60.1371864" rx="6"></rect>
        <filter x="-37.2%" y="-84.8%" width="174.5%" height="389.3%" filterUnits="objectBoundingBox" id="filter-6">
            <feMorphology radius="4" operator="erode" in="SourceAlpha" result="shadowSpreadOuter1"></feMorphology>
            <feOffset dx="0" dy="36" in="shadowSpreadOuter1" result="shadowOffsetOuter1"></feOffset>
            <feGaussianBlur stdDeviation="27" in="shadowOffsetOuter1" result="shadowBlurOuter1"></feGaussianBlur>
            <feColorMatrix values="0 0 0 0 0   0 0 0 0 0   0 0 0 0 0  0 0 0 0.07 0" type="matrix" in="shadowBlurOuter1"></feColorMatrix>
        </filter>
    </defs>
    <g id="UI" stroke="none" stroke-width="1" fill="none" fill-rule="evenodd">
        <g id="Product" transform="translate(-733.000000, -2877.000000)">
            <g id="ilu-2" transform="translate(778.000000, 2886.000000)">
                <g id="undraw_ideas_flow_cy7b" transform="translate(122.902297, 51.279685)">
                    <path d="M48.2517659,223.074546 C59.8543824,220.369003 71.9975655,221.149551 83.1583118,225.318294 C94.5197431,229.604231 104.264835,237.226913 113.333852,245.122355 C130.852771,260.374246 147.82185,276.250839 168.984071,286.428188 C187.88674,295.51886 209.171822,299.379697 229.725799,293.958614 C239.042442,291.592959 247.696663,287.133149 255.029838,280.918592 C262.534979,274.421415 267.815567,265.914993 271.318901,256.690504 C278.662066,237.355553 278.516404,216.206196 284.122612,196.420507 C287.01187,186.223616 291.597699,176.590905 298.922175,168.820341 C306.163142,161.138362 315.378974,155.509426 325.154497,151.645942 C348.335874,142.484165 373.426294,143.226989 397.914153,143.550347 C421.05749,143.855957 444.773874,143.457197 466.451885,134.343119 C476.111884,130.281767 485.12947,124.540788 492.256683,116.79432 C499.849263,108.542023 509.823467,89.2493419 513.445067,78.7158445 C515.314613,73.2782368 544.282822,7.8375127 545.622207,2.24837504 C546.120705,0.168175162 542.914648,-0.719464785 542.415304,1.36426909 C539.64244,12.9351844 503.801241,93.5469676 497.704479,103.850599 C492.004023,113.421783 483.908931,121.343177 474.21637,126.83472 C453.791688,138.568883 429.679975,140.352989 406.63802,140.301593 C381.909154,140.246429 356.612867,138.406025 332.591941,145.567984 C313.044032,151.396288 295.054215,163.073583 286.0024,181.894418 C276.991972,200.629213 276.677242,221.888748 272.191703,241.859843 C269.963903,251.778856 266.632553,261.544516 260.658083,269.871471 C254.702916,278.171517 246.173874,284.373338 236.732695,288.15647 C216.546782,296.24507 194.037129,293.87252 174.442498,285.293468 C152.475618,275.675775 134.880415,259.652572 117.098054,244.007681 C108.53216,236.471429 99.5231128,229.133682 89.1265594,224.263482 C71.9560123,216.129103 52.0357569,216.157047 34.8880994,224.339568 C17.7404419,232.522089 5.18765657,247.989634 0.709634686,266.454279 C0.200930716,268.532775 3.40718053,269.419575 3.91654449,267.338385 C9.22583018,245.645483 26.4240312,228.159378 48.2517659,223.074546 Z" id="Path" fill="#3F3D56" fill-rule="nonzero"></path>
                    <path d="M75.2729021,105.778966 C124.005669,78.0154013 167.106249,40.3574835 211.197243,0.83869282 L474.048387,176.878592 C487.171503,185.667567 491.232473,203.126266 483.335359,216.804637 L391.711488,375.503804 L356.78369,436 L350.129091,432.1588 L293.756503,395.156372 L244.146706,366.512373 L118.094237,293.738465 C84.8718893,274.558198 65.5499756,238.063281 68.3619613,199.804952 L75.2728664,105.778986 Z" id="Combined-Shape" fill="#2F2E41"></path>
                    <path d="M239.452494,348.89395 L183.76045,348.89395 C179.959912,326.923075 179.959912,304.462769 183.76045,282.491894 L239.452494,282.491894 C233.178343,304.181292 233.178343,327.204552 239.452494,348.89395 Z" id="Path" fill="#FFFFFF" fill-rule="nonzero"></path>
                    <path d="M31.1246889,282.361586 L86.8167396,282.361586 C90.6172773,260.390711 90.6172773,237.930405 86.8167396,215.95953 L31.1246889,215.95953 C37.3988465,237.648927 37.3988465,260.672189 31.1246889,282.361586 Z" id="Path" fill="#04AB6A" fill-rule="nonzero"></path>
                    <path d="M42.9268562,243.893597 C46.7043979,242.411653 50.9512495,242.730923 54.4647655,244.760993 C57.3909053,246.3961 60.0455931,248.3929 63.4413649,248.914006 C66.2211963,249.333847 69.0629875,248.899582 71.5905645,247.668694 C74.8348483,246.082499 76.8373661,243.029213 79.614772,240.839243 C81.1730259,239.610575 78.9763,237.440573 77.4329921,238.657463 C74.7203143,240.796397 72.7859204,243.907079 69.4813846,245.221247 C65.9436348,246.628162 62.500019,245.910239 59.2913212,244.061585 C56.7047573,242.571371 54.2942155,240.865805 51.3245577,240.217463 C48.2487027,239.556186 45.0471739,239.799607 42.1066562,240.918323 C40.2617283,241.604171 41.0600163,244.587623 42.9269042,243.893609 L42.9268562,243.893597 Z" id="Path" fill="#F2F2F2" fill-rule="nonzero"></path>
                    <path d="M42.9268562,258.80686 C46.7043979,257.324917 50.9512495,257.644186 54.4647655,259.674256 C57.3909053,261.30937 60.0455931,263.306163 63.4413649,263.827269 C66.2211963,264.24711 69.0629875,263.812845 71.5905645,262.581958 C74.8348483,260.995762 76.8373661,257.942476 79.614772,255.752506 C81.1730259,254.523838 78.9763,252.353836 77.4329921,253.570726 C74.7203143,255.70966 72.7859204,258.820342 69.4813846,260.13451 C65.9436348,261.541426 62.500019,260.823502 59.2913212,258.974848 C56.7047573,257.484634 54.2942155,255.779068 51.3245577,255.130726 C48.2486942,254.46944 45.0471543,254.712856 42.1066262,255.831574 C40.2616983,256.517422 41.0599863,259.500874 42.9268742,258.80686 L42.9268562,258.80686 Z" id="Path" fill="#F2F2F2" fill-rule="nonzero"></path>
                    <path d="M224.271133,302.003899 C220.49359,300.521955 216.246736,300.841224 212.733218,302.871295 C209.807078,304.506403 207.152396,306.503203 203.756619,307.024309 C200.976787,307.444151 198.134996,307.009885 195.607419,305.778997 C192.363135,304.192801 190.360611,301.139515 187.583212,298.949545 C186.024958,297.720877 188.221678,295.550876 189.764991,296.767765 C192.477663,298.906699 194.412063,302.017381 197.716593,303.331549 C201.254349,304.738465 204.697959,304.020541 207.906662,302.171887 C210.49322,300.681673 212.903768,298.976101 215.873426,298.327765 C218.949289,297.666479 222.150829,297.909896 225.091357,299.028613 C226.936285,299.714461 226.137997,302.697913 224.271109,302.003899 L224.271133,302.003899 Z" id="Path" fill="#D8D8D8" fill-rule="nonzero"></path>
                    <path d="M224.271133,316.402908 C220.493589,314.920967 216.246735,315.240238 212.733218,317.27031 C209.807078,318.905418 207.152396,320.902218 203.756619,321.423324 C200.976787,321.843166 198.134996,321.4089 195.607419,320.178012 C192.363135,318.591816 190.360611,315.53853 187.583212,313.34856 C186.024958,312.119887 188.221678,309.949891 189.764991,311.166781 C192.477663,313.305708 194.412063,316.41639 197.716593,317.730564 C201.254349,319.137474 204.697959,318.41955 207.906662,316.570896 C210.49322,315.080682 212.903768,313.375116 215.873426,312.726781 C218.949289,312.065493 222.150829,312.308907 225.091357,313.427622 C226.936285,314.113476 226.137997,317.096922 224.271109,316.402908 L224.271133,316.402908 Z" id="Path" fill="#D8D8D8" fill-rule="nonzero"></path>
                    <path d="M224.271133,330.801917 C220.493589,329.319972 216.246734,329.639244 212.733218,331.669319 C209.807078,333.304427 207.152396,335.301221 203.756619,335.822327 C200.976788,336.242175 198.134995,335.807911 195.607419,334.577021 C192.363135,332.990819 190.360611,329.937534 187.583212,327.74757 C186.024958,326.518896 188.221678,324.348894 189.764991,325.56579 C192.477663,327.704718 194.412063,330.815399 197.716593,332.129567 C201.254349,333.536483 204.697959,332.818559 207.906662,330.969905 C210.49322,329.479692 212.903768,327.774126 215.873426,327.125784 C218.949289,326.464498 222.150829,326.707914 225.091357,327.826632 C226.936285,328.51248 226.137997,331.495931 224.271109,330.801917 L224.271133,330.801917 Z" id="Path" fill="#D8D8D8" fill-rule="nonzero"></path>
                    <path d="M334.082047,43.7972866 C322.16312,23.6579938 298.582479,22.7194138 298.582479,22.7194138 C298.582479,22.7194138 275.60449,19.78101 260.864249,50.4534042 C247.125174,79.0425985 228.163495,106.646047 257.811575,113.338566 L263.166881,96.6704654 L266.483393,114.579486 C270.704708,114.883101 274.939475,114.955478 279.1687,114.79629 C310.919396,113.77119 341.157138,115.096206 340.18353,103.702723 C338.889277,88.5566959 345.550446,63.1753174 334.082047,43.7972866 Z" id="Path" fill="#2F2E41" fill-rule="nonzero"></path>
                    <path d="M252.714546,235.035059 L212.518178,262.949205 C212.518178,262.949205 189.070293,287.513654 205.818782,287.513654 C222.567271,287.513654 229.266661,266.298921 229.266661,266.298921 L280.628692,243.967607 L252.714546,235.035059 Z" id="Path" fill="#FFB8B8" fill-rule="nonzero"></path>
                    <path d="M268.904753,126.169896 C268.904753,126.169896 233.732929,235.035089 244.898586,240.617891 C256.064243,246.200692 280.628692,249.550414 280.628692,249.550414 L268.904753,126.169896 Z" id="Path" fill="#26AF6F" fill-rule="nonzero"></path>
                    <path d="M268.904753,126.169896 C268.904753,126.169896 233.732929,235.035089 244.898586,240.617891 C256.064243,246.200692 280.628692,249.550414 280.628692,249.550414 L268.904753,126.169896 Z" id="Path" fill="#000000" fill-rule="nonzero" opacity="0.1"></path>
                    <path d="M391.583025,376.869453 L356.655143,437.365853 L350.000742,433.524419 C337.283335,384.73748 321.943238,326.591178 321.943238,326.591178 L283.544164,395.156174 L233.934403,366.512415 C245.808462,340.949015 266.111057,280.812566 266.111057,280.812566 L356.557451,235.034009 C356.557451,235.034009 385.586896,252.899068 386.702812,296.445806 C387.818728,339.992543 387.818728,365.674197 387.818728,365.674197 C387.818728,365.674197 389.294602,369.916779 391.583025,376.869453 Z" id="Path" fill="#FFFFFF" fill-rule="nonzero"></path>
                    <circle id="Oval" fill="#FFB8B8" fill-rule="nonzero" cx="291.236067" cy="69.225039" r="29.0307103"></circle>
                    <path d="M290.677785,93.2311996 C290.677785,93.2311996 297.377181,114.44595 290.677785,122.26191 C283.97839,130.077869 327.524455,111.096253 327.524455,111.096253 C327.524455,111.096253 311.892536,88.7649379 316.358798,78.7158445 L290.677785,93.2311996 Z" id="Path" fill="#FFB8B8" fill-rule="nonzero"></path>
                    <path d="M331.960273,97.8560293 C331.14334,99.1787613 330.219961,100.432712 329.199307,101.605429 C328.082707,102.721993 321.383342,103.838557 320.266778,106.071691 C319.150214,108.304825 302.685957,111.487981 302.685957,111.487981 L296.818899,113.88765 C296.818899,113.88765 268.904753,120.587046 268.904753,126.169878 C268.904753,131.752709 266.671619,148.501192 266.671619,148.501192 C266.671619,148.501192 257.739089,158.550286 263.321921,183.114734 C265.473041,192.579662 268.471313,210.940597 266.789873,230.400611 C264.107447,261.445408 256.202387,294.945422 264.438473,297.004447 C277.837264,300.354145 315.800504,301.470709 328.082725,284.72222 C340.364946,267.973731 341.481516,253.458382 354.880308,252.341812 C368.279099,251.225242 352.647174,205.446049 352.647174,205.446049 L369.395663,96.0225974 C369.395663,96.0225974 341.420634,86.290646 331.960273,97.8560293 Z" id="Path" fill="#26AF6F" fill-rule="nonzero"></path>
                    <path d="M298.241241,272.240625 L353.933292,272.240625 C357.733823,250.269749 357.733823,227.809445 353.933292,205.838569 L298.241241,205.838569 C304.515399,227.527966 304.515399,250.551228 298.241241,272.240625 Z" id="Path" fill="#2F2E41" fill-rule="nonzero"></path>
                    <path d="M309.822866,228.46608 C313.600408,226.984135 317.847262,227.303406 321.360776,229.333482 C324.286915,230.968589 326.941603,232.965389 330.337375,233.486495 C333.117206,233.906336 335.958998,233.472071 338.486575,232.241183 C341.730858,230.654987 343.733376,227.601702 346.510782,225.411732 C348.069036,224.183058 345.87231,222.013062 344.329002,223.229952 C341.616324,225.36888 339.68193,228.479562 336.377395,229.793729 C332.839645,231.200645 329.396029,230.482721 326.187325,228.634068 C323.600767,227.143854 321.19022,225.438288 318.220568,224.789952 C315.144703,224.128661 311.94316,224.372075 309.00263,225.490794 C307.157702,226.176648 307.955996,229.160094 309.822884,228.46608 L309.822866,228.46608 Z" id="Path" fill="#D3D3D3" fill-rule="nonzero"></path>
                    <path d="M309.822866,242.865095 C313.600408,241.383152 317.84726,241.702421 321.360776,243.732491 C324.286915,245.367605 326.941603,247.364398 330.337375,247.885504 C333.117206,248.305348 335.958998,247.871083 338.486575,246.640192 C341.730858,245.053997 343.733376,242.000711 346.510782,239.810747 C348.069036,238.582073 345.87231,236.412071 344.329002,237.628967 C341.616324,239.767895 339.68193,242.878577 336.377395,244.192745 C332.839645,245.599661 329.396029,244.881737 326.187325,243.033083 C323.600767,241.542869 321.19022,239.837303 318.220568,239.188961 C315.144702,238.527675 311.94316,238.771091 309.00263,239.889809 C307.157702,240.575657 307.955996,243.559109 309.822884,242.865095 L309.822866,242.865095 Z" id="Path" fill="#D3D3D3" fill-rule="nonzero"></path>
                    <path d="M390.052143,165.807981 L349.855746,193.722128 C349.855746,193.722128 326.407861,218.286576 343.15635,218.286576 C359.904839,218.286576 366.604229,197.071825 366.604229,197.071825 L417.96626,174.740505 L390.052143,165.807981 Z" id="Path" fill="#FFB8B8" fill-rule="nonzero"></path>
                    <path d="M320.996582,41.8559087 L297.700041,29.6529354 L283.08376,31.9209353 C272.488718,33.5649758 263.973218,41.5145302 261.605561,51.9716801 L258.872405,64.0431154 L275.441584,63.4057954 L280.070392,52.60525 L280.070392,63.2277934 L287.71579,62.9337214 L292.153245,45.7386644 L294.926607,64.0431154 L322.105964,63.4884154 L320.996582,41.8559087 Z" id="Path" fill="#2F2E41" fill-rule="nonzero"></path>
                    <path d="M361.579715,98.2557313 L369.395675,96.0225974 C369.395675,96.0225974 448.67187,128.403006 446.438718,156.317152 C444.205566,184.231298 447.555282,184.231298 434.156491,185.347862 C420.7577,186.464426 381.677902,173.065641 382.794466,170.832507 C383.91103,168.599373 391.726989,157.433728 391.726989,157.433728 L361.579715,133.985849 L361.579715,98.2557313 Z" id="Path" fill="#26AF6F" fill-rule="nonzero"></path>
                    <circle id="Oval" fill="#FFB8B8" fill-rule="nonzero" cx="320.266778" cy="69.225039" r="4.46626173"></circle>
                    <path d="M364.150223,143.773343 C393.289293,142.201343 422.833718,146.338084 451.502016,139.286543 C453.579258,138.775607 452.699448,135.567641 450.61791,136.079633 C422.261798,143.054369 392.976339,138.892481 364.150223,140.447633 C362.021459,140.562479 362.007989,143.888909 364.150223,143.773337 L364.150223,143.773343 Z" id="Path" fill="#3F3D56" fill-rule="nonzero"></path>
                    <path d="M492.774141,192.252536 L538.988893,161.175196 C529.882465,140.822398 517.349139,122.184237 501.935139,106.072999 L455.720388,137.150333 C473.029993,151.647664 485.87746,170.752982 492.774141,192.252536 Z" id="Path" fill="#B6B5C9" fill-rule="nonzero"></path>
                    <path d="M481.101952,153.744928 C483.409705,150.407226 487.112016,148.302335 491.160447,148.026328 C494.501067,147.750328 497.818251,147.925966 500.926941,146.463478 C503.467997,145.260662 505.583854,143.314507 506.994429,140.882633 C508.801496,137.755985 508.759442,134.104835 509.842154,130.737689 C510.449612,128.848571 507.415808,128.273664 506.814177,130.144673 C505.756695,133.433345 505.887309,137.094107 503.878449,140.028635 C501.727821,143.170271 498.469599,144.496127 494.775345,144.752591 C491.797377,144.959327 488.8453,144.889139 486.019216,146.008258 C483.097771,147.175902 480.576878,149.164421 478.761016,151.733638 C477.612766,153.332284 479.940016,155.36257 481.101952,153.744898 L481.101952,153.744928 Z" id="Path" fill="#F2F2F2" fill-rule="nonzero"></path>
                    <path d="M489.423868,166.120323 C491.73162,162.782621 495.433932,160.67773 499.482363,160.401724 C502.822983,160.125724 506.140167,160.301362 509.248856,158.838874 C511.789908,157.636066 513.905767,155.689927 515.316356,153.25807 C517.123418,150.131422 517.081364,146.480272 518.164076,143.113127 C518.771534,141.224003 515.73773,140.649101 515.136098,142.520111 C514.078616,145.808782 514.20923,149.469544 512.20037,152.404072 C510.049742,155.545708 506.791521,156.871564 503.097267,157.128028 C500.119299,157.334764 497.167221,157.26457 494.341137,158.383696 C491.419692,159.55134 488.8988,161.539858 487.082938,164.109075 C485.934688,165.707721 488.261938,167.738007 489.423874,166.120335 L489.423868,166.120323 Z" id="Path" fill="#F2F2F2" fill-rule="nonzero"></path>
                </g>
                <g id="Group-5">
                    <g id="Rectangle" transform="translate(147.788069, 31.068593) rotate(0.187370) translate(-147.788069, -31.068593) ">
                        <use fill="black" fill-opacity="1" filter="url(#filter-2)" xlink:href="#path-1"></use>
                        <use fill="#FFFFFF" fill-rule="evenodd" xlink:href="#path-1"></use>
                    </g>
                    <circle id="Oval" fill="#04AB6A" fill-rule="nonzero" cx="59.4022967" cy="30.7796853" r="16.5"></circle>
                    <rect id="Rectangle" fill="#D5D5D5" fill-rule="nonzero" transform="translate(127.131128, 19.519974) rotate(0.187370) translate(-127.131128, -19.519974) " x="93.2818421" y="17.1136261" width="67.698572" height="4.81269571"></rect>
                    <rect id="Rectangle" fill="#D5D5D5" fill-rule="nonzero" transform="translate(167.840626, 31.203628) rotate(0.187370) translate(-167.840626, -31.203628) " x="93.2438543" y="28.7972799" width="149.193543" height="4.81269571"></rect>
                    <rect id="Rectangle" fill="#D5D5D5" fill-rule="nonzero" transform="translate(167.802854, 42.754036) rotate(0.187370) translate(-167.802854, -42.754036) " x="93.2060822" y="40.3476879" width="149.193543" height="4.81269571"></rect>
                    <g id="Rectangle" transform="translate(117.788064, 191.268579) rotate(0.187370) translate(-117.788064, -191.268579) ">
                        <use fill="black" fill-opacity="1" filter="url(#filter-4)" xlink:href="#path-3"></use>
                        <use fill="#FFFFFF" fill-rule="evenodd" xlink:href="#path-3"></use>
                    </g>
                    <circle id="Oval" fill="#04AB6A" fill-rule="nonzero" cx="29.4022967" cy="190.779685" r="16.5"></circle>
                    <rect id="Rectangle" fill="#D5D5D5" fill-rule="nonzero" transform="translate(97.131129, 179.719966) rotate(0.187370) translate(-97.131129, -179.719966) " x="63.2818432" y="177.313618" width="67.698572" height="4.81269571"></rect>
                    <rect id="Rectangle" fill="#D5D5D5" fill-rule="nonzero" transform="translate(137.840627, 191.403620) rotate(0.187370) translate(-137.840627, -191.403620) " x="63.2438555" y="188.997272" width="149.193543" height="4.81269571"></rect>
                    <rect id="Rectangle" fill="#D5D5D5" fill-rule="nonzero" transform="translate(137.802849, 202.954028) rotate(0.187370) translate(-137.802849, -202.954028) " x="63.2060773" y="200.54768" width="149.193543" height="4.81269571"></rect>
                    <g id="Rectangle" transform="translate(193.994416, 111.228232) scale(1, -1) rotate(179.812630) translate(-193.994416, -111.228232) ">
                        <use fill="black" fill-opacity="1" filter="url(#filter-6)" xlink:href="#path-5"></use>
                        <use fill="#FFFFFF" fill-rule="evenodd" xlink:href="#path-5"></use>
                    </g>
                    <circle id="Oval" fill="#EF3131" fill-rule="nonzero" cx="282.402297" cy="110.779685" r="16.5"></circle>
                    <path d="M276.902297,105.279685 L288.902297,117.279685" id="Path-10" stroke="#FFFFFF" stroke-width="1.5"></path>
                    <path d="M276.902297,105.279685 L288.902297,117.279685" id="Path-10" stroke="#FFFFFF" stroke-width="1.5" transform="translate(282.902297, 111.279685) scale(-1, 1) translate(-282.902297, -111.279685) "></path>
                    <rect id="Rectangle" fill="#D5D5D5" fill-rule="nonzero" transform="translate(214.651355, 99.679612) rotate(179.812630) translate(-214.651355, -99.679612) " x="180.802069" y="97.2732646" width="67.698572" height="4.81269571"></rect>
                    <rect id="Rectangle" fill="#D5D5D5" fill-rule="nonzero" transform="translate(173.941866, 111.363269) rotate(179.812630) translate(-173.941866, -111.363269) " x="99.345094" y="108.956921" width="149.193543" height="4.81269571"></rect>
                    <rect id="Rectangle" fill="#D5D5D5" fill-rule="nonzero" transform="translate(173.979633, 122.913676) rotate(179.812630) translate(-173.979633, -122.913676) " x="99.3828618" y="120.507328" width="149.193543" height="4.81269571"></rect>
                    <polygon id="Path" fill="#FFFFFF" fill-rule="nonzero" transform="translate(59.902297, 30.279685) rotate(-10.000000) translate(-59.902297, -30.279685) " points="56.7281744 35.2796853 51.9022967 28.9502047 53.0455583 28.1068681 56.9767588 33.263253 66.997427 25.2796853 67.9022967 26.367556"></polygon>
                    <polygon id="Path" fill="#FFFFFF" fill-rule="nonzero" transform="translate(29.902297, 191.279685) rotate(-10.000000) translate(-29.902297, -191.279685) " points="26.7281744 196.279685 21.9022967 189.950205 23.0455583 189.106868 26.9767588 194.263253 36.997427 186.279685 37.9022967 187.367556"></polygon>
                </g>
            </g>
        </g>
    </g>
</svg>