<?xml version="1.0" encoding="UTF-8"?>
<svg width="41px" height="41px" viewBox="0 0 41 41" version="1.1" xmlns="http://www.w3.org/2000/svg" xmlns:xlink="http://www.w3.org/1999/xlink">
    <!-- Generator: Sketch 52.6 (67491) - http://www.bohemiancoding.com/sketch -->
    <title>Facebook-color</title>
    <desc>Created with Sketch.</desc>
    <g id="UI" stroke="none" stroke-width="1" fill="none" fill-rule="evenodd">
        <g id="Resources" transform="translate(-263.000000, -2879.000000)" fill="#3B5998">
            <path d="M284.899428,2920 L265.262885,2920 C264.012762,2920 263,2918.98661 263,2917.73697 L263,2881.26287 C263,2880.01291 264.012921,2879 265.262885,2879 L301.737274,2879 C302.98692,2879 304,2880.01291 304,2881.26287 L304,2917.73697 C304,2918.98677 302.986761,2920 301.737274,2920 L291.289407,2920 L291.289407,2904.12254 L296.618737,2904.12254 L297.416728,2897.93481 L291.289407,2897.93481 L291.289407,2893.98434 C291.289407,2892.19285 291.786879,2890.97201 294.355852,2890.97201 L297.632453,2890.97058 L297.632453,2885.43622 C297.065778,2885.36082 295.120753,2885.19234 292.857867,2885.19234 C288.133713,2885.19234 284.899428,2888.07597 284.899428,2893.37153 L284.899428,2897.93481 L279.556417,2897.93481 L279.556417,2904.12254 L284.899428,2904.12254 L284.899428,2920 L284.899428,2920 Z" id="Facebook"></path>
        </g>
    </g>
</svg>