<?xml version="1.0" encoding="UTF-8"?>
<svg width="38px" height="35px" viewBox="0 0 38 35" version="1.1" xmlns="http://www.w3.org/2000/svg" xmlns:xlink="http://www.w3.org/1999/xlink">
    <!-- Generator: Sketch 52.6 (67491) - http://www.bohemiancoding.com/sketch -->
    <title>LinkedIn-color</title>
    <desc>Created with Sketch.</desc>
    <g id="UI" stroke="none" stroke-width="1" fill="none" fill-rule="evenodd">
        <g id="Resources" transform="translate(-1139.000000, -2883.000000)" fill="#0077B5">
            <path d="M1177,2918 L1168.60148,2918 L1168.60148,2905.6961 C1168.60148,2902.47557 1167.28775,2900.27701 1164.39887,2900.27701 C1162.18921,2900.27701 1160.96037,2901.76065 1160.38841,2903.1905 C1160.17392,2903.70372 1160.20743,2904.41865 1160.20743,2905.13357 L1160.20743,2918 L1151.88711,2918 C1151.88711,2918 1151.99436,2896.20484 1151.88711,2894.22367 L1160.20743,2894.22367 L1160.20743,2897.95518 C1160.69897,2896.32362 1163.35771,2893.99507 1167.60054,2893.99507 C1172.86442,2893.99507 1177,2897.41506 1177,2904.77947 L1177,2918 L1177,2918 Z M1143.47295,2891.24966 L1143.41933,2891.24966 C1140.73824,2891.24966 1139,2889.43209 1139,2887.12819 C1139,2884.77947 1140.78963,2883 1143.52434,2883 C1146.25682,2883 1147.93697,2884.77499 1147.99059,2887.12147 C1147.99059,2889.42537 1146.25682,2891.24966 1143.47295,2891.24966 L1143.47295,2891.24966 L1143.47295,2891.24966 Z M1139.95849,2894.22367 L1147.365,2894.22367 L1147.365,2918 L1139.95849,2918 L1139.95849,2894.22367 L1139.95849,2894.22367 Z" id="LinkedIn"></path>
        </g>
    </g>
</svg>