<?xml version="1.0" encoding="UTF-8"?>
<svg width="45px" height="38px" viewBox="0 0 45 38" version="1.1" xmlns="http://www.w3.org/2000/svg" xmlns:xlink="http://www.w3.org/1999/xlink">
    <!-- Generator: Sketch 52.6 (67491) - http://www.bohemiancoding.com/sketch -->
    <title>Twitter-color</title>
    <desc>Created with Sketch.</desc>
    <g id="UI" stroke="none" stroke-width="1" fill="none" fill-rule="evenodd">
        <g id="Resources" transform="translate(-553.000000, -2881.000000)" fill="#1DA1F2">
            <path d="M592.698891,2887.00809 C594.605917,2885.82239 596.069202,2883.94229 596.758584,2881.70264 C594.973059,2882.80051 593,2883.59921 590.892235,2884.02737 C589.212361,2882.16374 586.81141,2881 584.154253,2881 C579.059165,2881 574.925515,2885.29541 574.925515,2890.59263 C574.925515,2891.34467 575.004754,2892.07476 575.163233,2892.77739 C567.490227,2892.37667 560.688854,2888.56157 556.132594,2882.7511 C555.337559,2884.17284 554.883254,2885.82239 554.883254,2887.57898 C554.883254,2890.90553 556.512942,2893.84233 558.990491,2895.56324 C557.479662,2895.51658 556.053354,2895.08017 554.806656,2894.36656 L554.806656,2894.48458 C554.806656,2899.13406 557.989435,2903.01228 562.215531,2903.89057 C561.441627,2904.11564 560.625462,2904.22817 559.782884,2904.22817 C559.18859,2904.22817 558.607501,2904.17053 558.044902,2904.058 C559.220285,2907.86761 562.627575,2910.64247 566.66878,2910.71658 C563.509773,2913.29108 559.526677,2914.82535 555.202853,2914.82535 C554.458003,2914.82535 553.721078,2914.78144 553,2914.69361 C557.086107,2917.41083 561.940835,2919 567.152139,2919 C584.135763,2919 593.419968,2904.38462 593.419968,2891.70697 C593.419968,2891.28978 593.412044,2890.87259 593.396197,2890.46363 C595.200211,2889.11051 596.766508,2887.42254 598,2885.49852 C596.34654,2886.26154 594.566297,2886.77754 592.698891,2887.00809 Z" id="Twitter"></path>
        </g>
    </g>
</svg>